<svg width="24" height="24" viewBox="0 0 24 24" fill="none" xmlns="http://www.w3.org/2000/svg">
<g clip-path="url(#clip0_6_4275)">
<path d="M8 7C8 8.06087 8.42143 9.07828 9.17157 9.82843C9.92172 10.5786 10.9391 11 12 11C13.0609 11 14.0783 10.5786 14.8284 9.82843C15.5786 9.07828 16 8.06087 16 7C16 5.93913 15.5786 4.92172 14.8284 4.17157C14.0783 3.42143 13.0609 3 12 3C10.9391 3 9.92172 3.42143 9.17157 4.17157C8.42143 4.92172 8 5.93913 8 7Z" stroke="white" stroke-width="1.6" stroke-linecap="round" stroke-linejoin="round"/>
<path d="M5.56104 20.7805V18.8293C5.56104 17.7943 6.0133 16.8017 6.81833 16.0698C7.62337 15.338 8.71523 14.9268 9.85372 14.9268H14.1464C15.2849 14.9268 16.3768 15.338 17.1818 16.0698C17.9868 16.8017 18.4391 17.7943 18.4391 18.8293V20.7805" stroke="white" stroke-width="1.6" stroke-linecap="round" stroke-linejoin="round"/>
</g>
<defs>
<clipPath id="clip0_6_4275">
<rect width="24" height="24" fill="white"/>
</clipPath>
</defs>
</svg>
