<svg width="25" height="24" viewBox="0 0 25 24" fill="none" xmlns="http://www.w3.org/2000/svg">
<g clip-path="url(#clip0_6_4243)">
<path d="M15.5 8H15.5097" stroke="white" stroke-width="1.6" stroke-linecap="round" stroke-linejoin="round"/>
<path d="M4.69995 6.8C4.69995 6.11043 4.97388 5.44911 5.46147 4.96152C5.94907 4.47392 6.61039 4.2 7.29995 4.2H17.7C18.3895 4.2 19.0508 4.47392 19.5384 4.96152C20.026 5.44911 20.3 6.11043 20.3 6.8V17.2C20.3 17.8896 20.026 18.5509 19.5384 19.0385C19.0508 19.5261 18.3895 19.8 17.7 19.8H7.29995C6.61039 19.8 5.94907 19.5261 5.46147 19.0385C4.97388 18.5509 4.69995 17.8896 4.69995 17.2V6.8Z" stroke="white" stroke-width="1.6" stroke-linecap="round" stroke-linejoin="round"/>
<path d="M4.69995 15.6L9.08457 10.8379C9.89835 9.98737 10.9016 9.98737 11.7153 10.8379L16.1 15.6" stroke="white" stroke-width="1.6" stroke-linecap="round" stroke-linejoin="round"/>
<path d="M14.3 13.365L15.1572 12.5475C15.9526 11.8175 16.9332 11.8175 17.7286 12.5475L20.3 15" stroke="white" stroke-width="1.6" stroke-linecap="round" stroke-linejoin="round"/>
</g>
<defs>
<clipPath id="clip0_6_4243">
<rect width="24" height="24" fill="white" transform="translate(0.5)"/>
</clipPath>
</defs>
</svg>
