<svg width="25" height="24" viewBox="0 0 25 24" fill="none" xmlns="http://www.w3.org/2000/svg">
<g clip-path="url(#clip0_6_4266)">
<path d="M12.5 8V12L14.5 14" stroke="white" stroke-width="1.6" stroke-linecap="round" stroke-linejoin="round"/>
<path d="M3.55005 11C3.77414 8.80006 4.80031 6.75961 6.43278 5.26797C8.06525 3.77632 10.1897 2.93788 12.4009 2.91263C14.6121 2.88737 16.7552 3.67706 18.4213 5.13103C20.0874 6.585 21.1599 8.60148 21.4342 10.7957C21.7085 12.99 21.1654 15.2084 19.9084 17.0278C18.6515 18.8471 16.7687 20.14 14.6193 20.6599C12.47 21.1797 10.2045 20.89 8.25504 19.8461C6.30563 18.8022 4.80877 17.0771 4.05005 15M3.55005 20V15H8.55005" stroke="white" stroke-width="1.6" stroke-linecap="round" stroke-linejoin="round"/>
</g>
<defs>
<clipPath id="clip0_6_4266">
<rect width="24" height="24" fill="white" transform="translate(0.5)"/>
</clipPath>
</defs>
</svg>
