<svg width="126" height="40" viewBox="0 0 126 40" fill="none" xmlns="http://www.w3.org/2000/svg">
<g clip-path="url(#clip0_191_14924)">
<path d="M14.5989 40C12.8481 40 10.415 38.968 9.18807 37.7028L2.24705 30.5849C1.01324 29.3197 0 26.8245 0 25.0362V14.9638C0 13.1755 1.01324 10.6803 2.24705 9.42216L9.18807 2.29723C10.415 1.03198 12.8481 0 14.5989 0H24.4211C26.165 0 28.5912 1.03198 29.8251 2.29723L36.7799 9.42216C38.0068 10.6874 39.0131 13.1825 39.0131 14.9638V25.0362C39.0131 26.8245 38.0068 29.3197 36.7799 30.5849L29.8251 37.7028C28.5981 38.968 26.1719 40 24.4211 40H14.5989Z" fill="white"/>
<path d="M15.1917 37.2505C13.7511 37.2505 11.6764 36.367 10.6562 35.3208L4.55612 29.0653C3.53598 28.0192 2.68128 25.8916 2.68128 24.4143V15.5718C2.68128 14.0945 3.53598 11.9669 4.55612 10.9208L10.6631 4.67232C11.6832 3.63326 13.758 2.74265 15.1986 2.74265H23.8214C25.262 2.74265 27.3368 3.6262 28.3569 4.67232L34.457 10.9278C35.4771 11.974 36.3318 14.1015 36.3318 15.5788V24.4214C36.3318 25.8987 35.4771 28.0263 34.457 29.0724L28.3569 35.3208C27.3436 36.367 25.2689 37.2505 23.8214 37.2505H15.1986H15.1917ZM23.8145 37.8655C25.4206 37.8655 27.64 36.9183 28.7705 35.7591L34.8706 29.5036C36.001 28.3373 36.9246 26.0613 36.9246 24.4143V15.5718C36.9246 13.9319 36.001 11.6488 34.8706 10.4896L28.7705 4.23408C27.64 3.08193 25.4206 2.13477 23.8145 2.13477H15.1917C13.5925 2.13477 11.3731 3.08193 10.2358 4.23408L4.13566 10.4896C3.01213 11.6488 2.0885 13.939 2.0885 15.5718V24.4143C2.0885 26.0542 3.01213 28.3373 4.13566 29.5036L10.2427 35.7591C11.3731 36.9183 13.5994 37.8655 15.1986 37.8655H23.8214H23.8145Z" fill="#333333"/>
<path d="M25.772 22.5056C25.7031 22.032 25.1586 20.8375 24.2901 20.6254C23.4216 20.4134 21.8087 19.9257 21.3193 19.8762C20.6025 19.7984 20.4922 17.6638 21.1056 17.1831C21.7191 16.7025 23.4009 15.5079 23.5801 15.3807C23.7456 15.2535 25.1586 14.2639 25.2551 13.6701C25.2689 13.6065 25.2827 13.4934 25.2895 13.3521C25.2895 13.3309 25.2895 13.3026 25.2895 13.2814C25.2964 13.1612 25.3102 13.0269 25.3171 12.8785C25.3171 12.8502 25.3171 12.8219 25.3171 12.7937C25.3447 12.3201 25.3723 11.7334 25.3723 11.1609C25.3861 10.2773 25.3723 9.42911 25.2758 9.06155C25.0759 8.23455 24.7864 8.27696 24.5589 8.3123C24.3315 8.34764 23.9317 8.96966 24.0006 9.26653C24.0557 9.49979 24.3659 10.3339 24.2763 10.7933C24.2487 10.8993 24.2074 10.9983 24.1316 11.0548C23.7594 11.3446 22.8081 11.4719 22.498 10.6731C22.4773 10.6237 22.4635 10.5742 22.4428 10.5106C22.2429 9.71891 23.2838 9.83201 23.2838 9.83201C23.2838 9.83201 23.6146 9.87442 23.7111 9.22412C23.78 8.72227 23.3389 8.5809 23.1459 8.53849C22.946 8.49608 22.5738 8.09318 22.6289 7.84579C22.7806 7.25204 22.6979 7.20256 22.6979 7.20256C22.6979 7.20256 22.3532 6.7926 22.4428 6.58762C22.5393 6.37556 22.815 6.06455 23.0563 5.70407C23.2906 5.34358 22.2705 4.16316 21.6226 4.18436C20.9885 4.20557 21.6226 5.65459 20.9333 5.8313C20.4784 5.94439 19.8029 5.63338 19.541 5.53443C19.41 5.48495 19.3273 5.46374 19.2928 5.53443C19.2032 5.73941 18.8517 8.72934 19.0171 9.28774C19.0654 9.45031 19.086 9.95217 19.0998 10.5954C19.0998 10.9912 19.0998 11.4365 19.0998 11.8889C19.0998 11.9596 19.0998 12.0303 19.0998 12.101C19.0998 12.1787 19.0998 12.2494 19.0998 12.3271C19.0998 12.3908 19.0998 12.4685 19.0998 12.5321C19.0723 13.6136 19.024 14.6102 18.962 14.8506C18.831 15.409 16.8459 14.8576 16.4806 14.1154C16.1084 13.3662 16.9424 13.0905 17.0251 12.6806C17.0251 12.6594 17.0389 12.6382 17.0458 12.6169C17.0734 12.5463 17.1285 12.4685 17.2043 12.412C17.287 12.3271 17.3904 12.2565 17.4938 12.1858C17.5903 12.1151 17.6937 12.0444 17.7695 11.9737C17.866 11.8889 17.935 11.797 17.935 11.691C17.9281 11.3517 17.6868 10.8923 17.4042 10.6802C17.3904 10.6661 17.3766 10.659 17.356 10.6449C17.0527 10.454 16.3496 10.0229 17.0665 9.49272C17.7902 8.96259 17.6455 8.81416 17.5834 8.61624C17.5283 8.41833 16.6322 8.0437 16.5702 7.64081C16.5082 7.24498 17.4662 6.55227 17.5145 6.19885C17.549 5.84544 16.708 5.7182 16.3083 5.4284C15.9016 5.1386 15.8809 4.48124 15.6397 4.58726C15.3984 4.69329 15.3226 5.35772 14.978 5.52029C14.6402 5.68286 14.268 6.2554 14.3231 6.50279C14.3783 6.75019 15.0813 6.98345 15.1434 7.49237C15.2123 7.99422 14.9848 8.75761 14.4059 8.9838C13.82 9.20292 13.5511 8.46074 13.1583 8.56676C12.8894 8.64452 12.8205 10.6307 12.8757 12.0656C12.8963 12.6876 12.9446 13.2107 13.0204 13.4227C13.0273 13.4652 13.0549 13.5005 13.0755 13.5429C13.11 13.6277 13.172 13.7055 13.241 13.7903C13.2617 13.8256 13.303 13.861 13.3237 13.8893C13.3857 13.9599 13.4546 14.0306 13.5305 14.1013C14.1715 14.7092 15.2743 15.416 16.3014 16.0946C17.7626 17.0559 18.3968 17.2821 18.445 18.1939C18.5139 19.4309 18.1142 19.8691 17.673 20.2225C17.673 20.2225 15.7982 21.2121 14.8746 21.3676C13.9578 21.516 12.9446 22.4279 12.9446 24.2091C12.9446 25.9833 13.2134 28.6693 14.0405 29.1711C14.8608 29.68 16.6115 30.2667 17.5352 30.3162C17.7695 30.3303 17.7351 31.5602 17.5145 31.7369C17.2939 31.9207 16.6805 32.7124 16.7011 33.3627L15.2881 33.9493C15.2881 33.9493 14.7781 34.119 14.847 34.8894C14.8815 35.2429 16.5219 35.0167 17.4456 35.1086C17.7488 35.1368 18.9137 35.158 19.8305 35.1722C21.7053 35.1934 24.166 35.158 24.2556 35.0167C24.2556 35.0167 24.5589 34.4159 24.2074 34.2533C23.8559 34.0907 23.0908 33.6949 22.4015 33.6595C22.4015 33.6595 22.6427 32.882 22.367 32.5427C22.2498 32.3943 21.7536 31.7016 21.4847 31.4542L21.4778 31.4471C21.4296 31.3835 21.4089 31.2492 21.402 31.1078V30.8887C21.402 30.7544 21.5261 30.705 21.6571 30.6696C22.1533 30.5424 23.587 30.2455 23.7594 30.1536C23.9868 30.0264 25.9926 29.4892 26.1925 28.4784C26.3924 27.4676 25.8754 22.9863 25.7996 22.5127L25.772 22.5056ZM23.1804 12.73C23.1804 12.73 23.5112 12.624 23.5801 12.9704C23.6422 13.3238 23.6491 13.5995 23.4492 13.5853C23.2493 13.5641 23.0908 12.7795 23.1873 12.73H23.1804ZM14.1508 9.71184C14.3507 8.94846 15.4536 10.1077 15.5087 10.3551C15.5501 10.5459 15.3915 10.6873 15.233 10.8499C15.1778 10.9064 15.1296 10.9629 15.0882 11.0266C14.9021 11.2881 14.3714 11.5991 14.1577 11.2598C13.9578 10.8993 14.1577 9.71891 14.1577 9.71891L14.1508 9.71184ZM15.4122 13.5924C15.2812 13.6277 14.9573 13.3662 14.7505 13.1824C14.6402 13.0905 14.5644 13.0128 14.5644 13.0128C14.5506 12.9986 14.5506 12.9916 14.5437 12.9774C14.5092 12.928 14.4817 12.8926 14.461 12.8502C14.399 12.73 14.399 12.6311 14.4334 12.5533C14.4955 12.4049 14.7022 12.3342 14.9159 12.3413C15.0745 12.3413 15.233 12.3837 15.3502 12.4614C15.4053 12.4897 15.4398 12.5321 15.4811 12.5816L15.488 12.5957C15.5294 12.6735 15.5707 12.7583 15.5845 12.8361C15.6534 13.1683 15.5569 13.5429 15.4053 13.5924H15.4122ZM22.6289 14.1649C22.5807 14.3699 21.3676 15.5362 20.5404 15.1474C20.5404 15.1474 20.4164 15.1828 20.3405 13.4864C20.3405 13.3238 20.6162 12.8714 21.1125 12.8997C21.6019 12.935 22.6703 13.9599 22.6289 14.1649ZM20.6714 6.79967C21.0298 6.7926 21.4227 7.18136 21.5881 7.83165C21.7467 8.45367 21.0436 8.96259 20.6921 8.97673C20.3405 8.9838 20.3336 8.51729 20.313 7.87406C20.2854 7.23084 20.313 6.8138 20.6714 6.79967ZM20.2096 10.6802C20.3061 10.4611 20.5335 10.2915 20.8092 10.2844C21.0918 10.2773 21.34 10.447 21.4365 10.6802C21.4641 10.7438 21.4847 10.8216 21.4847 10.8923C21.4916 11.2386 21.209 11.5355 20.8299 11.5496C20.4646 11.5496 20.1544 11.2881 20.1475 10.9347C20.1475 10.8499 20.1682 10.765 20.1958 10.6802H20.2096ZM19.9476 33.6949C19.8994 33.7019 19.8511 33.7019 19.8029 33.7019C19.2928 33.7514 18.383 33.3273 18.19 33.1506C18.1348 33.0799 18.1073 32.9032 18.1004 32.7831C18.1142 32.1186 18.5277 31.7511 18.8172 31.5673C18.9206 31.5178 19.086 31.4401 19.2928 31.4895C19.3411 31.4966 19.7615 31.5249 19.8029 31.539C20.9126 31.9773 20.6576 32.7336 20.761 33.0022C20.8644 33.299 20.6231 33.5111 19.9408 33.6878L19.9476 33.6949ZM24.621 27.7504C24.49 28.3088 22.305 28.6127 22.0017 28.5703C21.7053 28.535 21.6777 29.0863 21.0229 28.853C20.5611 28.6905 20.1544 28.5986 19.8029 28.5067C19.6581 28.4713 19.1412 28.4289 19.0171 28.3936C18.5622 28.2593 18.0315 28.6339 17.4387 28.5491C16.8459 28.4643 15.3846 28.1886 15.0813 27.7504C14.7712 27.298 14.2542 25.955 14.2404 25.3966C14.2197 24.8382 14.4059 23.8133 14.785 23.5588C15.171 23.2902 17.8729 21.9472 17.8729 21.9472C17.8729 21.9472 18.3003 21.4807 19.0792 21.4312C19.279 21.4171 20.2027 21.4736 20.437 21.5302C21.6295 21.7917 21.5192 21.2899 21.919 21.6362C22.3257 21.9755 23.0976 22.1734 23.4492 22.3643C23.8076 22.5551 24.4486 22.8944 24.6141 23.3892C24.7795 23.884 24.745 27.1849 24.6141 27.7433L24.621 27.7504Z" fill="#333333"/>
<path d="M95.2789 7.64811C95.658 7.68345 95.8027 7.91671 96.106 8.00153V8.10049H96.2576V8.19945C96.4024 8.23479 96.4162 8.25599 96.4506 8.40443C96.5196 8.42563 96.5816 8.43977 96.6505 8.46098C96.6919 8.61648 96.7608 8.63769 96.7953 8.80733H96.8918V8.91335C97.133 8.97697 96.9538 8.95576 97.0434 9.11127H97.0986C97.1882 9.23143 97.2364 9.24557 97.2433 9.46469C97.3674 9.62726 97.0641 9.89586 97.0986 10.2705C97.1813 10.3906 96.9607 10.4119 96.9952 10.6168H97.0434C97.071 10.737 96.9952 10.843 96.9952 10.8713H97.0434V11.1258H96.9952V11.5711C96.9952 11.5711 96.9331 11.5711 96.9469 11.6771H96.9952V11.875H96.9469C96.9331 11.9598 96.9883 11.9598 96.9952 11.974V12.2779H96.9469C96.8987 12.4263 96.9745 12.6525 96.9952 12.7303V13.4866H97.0434V13.9319H97.0986V13.9814C97.1124 14.1015 97.0365 14.1228 97.0434 14.1793H97.0986V14.3843H97.1399V14.4338C97.1399 14.4338 97.0365 14.462 97.0434 14.5327H97.0986V14.9851C97.0986 14.9851 97.1606 14.9992 97.1399 15.0841H97.0986V15.2325C97.1124 15.3951 97.1261 15.5718 97.1399 15.7343H97.0986V16.1372H97.0434C97.0572 16.215 97.1399 16.2221 97.1399 16.2362C97.1813 16.3493 97.1124 16.3564 97.0986 16.3846V16.4341H97.1399C97.1261 16.5755 97.1124 16.7027 97.0986 16.837H97.1399C97.2088 16.7663 97.4018 16.6956 97.5397 16.6815C97.5535 16.632 97.5742 16.5826 97.588 16.5331C97.7672 16.5543 97.8085 16.6038 97.9808 16.5331V16.4836H98.1256C98.1394 16.4483 98.1601 16.4129 98.1738 16.3846C98.2221 16.3988 98.2703 16.4129 98.3186 16.4341C98.3324 16.3988 98.3462 16.3634 98.3668 16.3352C98.5047 16.314 98.6288 16.2998 98.7597 16.2786V16.2291H98.9045V16.1797H99.0492C99.0492 16.1797 99.0837 16.116 99.0975 16.0807C99.3318 16.0524 99.5593 16.0171 99.7868 15.9817V15.9323H99.9315V15.8828C99.9797 15.8969 100.028 15.9111 100.076 15.9323V15.8828H100.276V15.8333H100.421V15.7768H100.766V15.7273H101.007V15.6778H101.4V15.6283H101.696V15.5788H101.986V15.5223H102.523C102.702 15.4728 102.751 15.4304 103.013 15.4233C103.047 15.4799 103.006 15.4233 103.061 15.4728C103.075 15.5788 103.088 15.6778 103.109 15.7768C103.061 15.8121 103.019 15.8474 102.964 15.8828V15.9323H102.868C102.826 15.9817 102.799 16.0312 102.764 16.0807C102.613 16.1302 102.468 16.1797 102.323 16.2291C102.31 16.2645 102.289 16.2998 102.268 16.3281H102.172V16.3776H102.075L101.979 16.4765H101.882C101.848 16.526 101.813 16.5755 101.779 16.625H101.689L101.586 16.731H101.482C101.482 16.731 101.455 16.7946 101.434 16.8299C101.276 16.9218 101.262 16.7522 101.193 17.0279C100.841 17.0915 100.641 17.3035 100.311 17.3883C100.29 17.4308 100.276 17.4802 100.255 17.5297C100.076 17.5014 100.076 17.4802 99.9108 17.5792C99.897 17.6145 99.8764 17.6499 99.8626 17.6852H99.6144C99.58 17.7418 99.5524 17.7842 99.5179 17.8337C99.3663 17.869 99.2284 17.9043 99.0768 17.9397C99.063 17.968 99.0423 18.0033 99.0285 18.0386C98.8907 18.074 98.9321 17.9326 98.8287 17.9397V17.9892C98.7804 18.0033 98.7322 18.0174 98.6839 18.0386V18.0881H98.5874V18.1376H98.3393V18.1871H98.2428V18.2366H98.0911V18.286C97.9877 18.2648 97.8981 18.2507 97.7947 18.2366C97.7465 18.3072 97.6982 18.3779 97.6431 18.4415C97.5466 18.4698 97.4501 18.5122 97.3536 18.5405V18.696C97.1813 18.696 97.0296 18.6889 96.9194 18.6465V19.0494C96.8229 19.1625 96.8711 19.3392 96.8229 19.5018H96.7677V19.9047H96.7264V20.1097H96.6781V20.3571C96.6781 20.3571 96.6092 20.3853 96.5747 20.4066C96.554 20.456 96.5471 20.5055 96.5265 20.555H96.4782C96.4231 20.7176 96.5885 20.7105 96.5747 20.8024H96.5265C96.5058 21.071 96.4989 21.3396 96.4782 21.6082H96.3817C96.361 21.7778 96.3473 21.9404 96.3335 22.11H96.2783V22.209H96.2301V22.5553H96.1818V22.6543H96.1336V22.8522C96.0991 22.8734 96.0647 22.8876 96.0302 22.9017V23.1562C95.9888 23.1915 95.9337 23.2198 95.8854 23.2551C95.8717 23.5025 95.851 23.757 95.8372 24.0114H95.7889V24.1104C95.7545 24.1245 95.7269 24.1457 95.6924 24.1599V24.3083H95.6442V24.4073H95.5959C95.5822 24.5769 95.5684 24.7465 95.5477 24.9091C95.4857 24.9586 95.4167 25.0081 95.3547 25.0575C95.334 25.107 95.3202 25.1565 95.3064 25.206C95.272 25.2272 95.2375 25.2413 95.21 25.2625V25.5099H95.1617C95.141 25.5806 95.1272 25.6442 95.1135 25.7078C95.0583 25.7432 95.0101 25.7785 94.9618 25.8139C94.948 25.8987 94.9273 25.9835 94.9136 26.0683H94.8653C94.8653 26.0683 94.8308 26.1319 94.8171 26.1673H94.7206C94.693 26.2168 94.6516 26.2662 94.631 26.3228H94.5276C94.5138 26.4217 94.5276 26.4712 94.4793 26.5207H94.3828V26.5702H94.3346V26.6691H94.2863C94.2174 26.754 94.176 26.7893 94.1416 26.9165H94.0451C94.0244 26.9731 94.0175 27.0226 93.9968 27.072C93.8521 27.0862 93.7073 27.1074 93.5557 27.1215V27.072C93.5074 27.0579 93.4592 27.0367 93.4109 27.0226V27.072C93.342 27.0862 93.28 27.1074 93.211 27.1215V27.2205C93.0594 27.2417 93.0318 27.2841 92.9147 27.3265V27.27C92.8664 27.2417 92.8182 27.2063 92.7699 27.171V27.1215H92.6734C92.632 27.072 92.6045 27.0226 92.5769 26.9731H92.4253C92.315 26.8741 92.1978 26.7681 92.0806 26.6691V26.4712C91.9703 26.3581 91.991 26.238 92.0324 26.0683C92.0324 26.0542 92.1082 26.0542 92.0806 25.9694C92.0462 25.9552 92.0186 25.9411 91.9841 25.9199V25.8209H91.9359C91.9152 25.7715 91.9083 25.7149 91.8876 25.6654H91.9841C92.0462 25.623 91.9841 25.5453 92.0324 25.4675C92.06 25.4534 92.0944 25.4322 92.1289 25.418C92.1496 25.3332 92.1564 25.2484 92.1771 25.1636H92.2254V24.9657C92.3081 24.895 92.3908 24.8314 92.4666 24.7677V24.6193C92.4666 24.6193 92.5356 24.584 92.57 24.5698V24.4638H92.6183C92.632 24.3507 92.6458 24.2376 92.6734 24.1175C92.7217 24.0892 92.7699 24.0538 92.8182 24.0185C92.8388 23.8701 92.8526 23.7146 92.8664 23.5591H92.9629C92.9629 23.2622 93.0456 23.2551 93.1145 23.0572C93.1283 22.9088 93.149 22.7533 93.1628 22.6048H93.211V22.3998H93.2593V22.3009H93.3006V22.1524H93.3558C93.3696 22.0111 93.3834 21.8768 93.404 21.7425H93.4454V21.3891H93.4936C93.5143 21.3184 93.5281 21.2548 93.5419 21.1911H93.597V20.7388C93.597 20.7388 93.666 20.6964 93.6935 20.6893C93.728 20.5196 93.7556 20.35 93.79 20.1874C93.79 20.1804 93.7211 20.1662 93.7487 20.0885H93.79V19.9824H93.8383C93.9072 19.8269 93.8659 19.7351 93.8383 19.5795H93.9348C93.9555 19.4806 93.9624 19.3746 93.983 19.2756H94.0313V18.9293C94.0313 18.9293 94.1002 18.8939 94.1278 18.8798C94.114 18.8162 94.0382 18.7455 94.0726 18.6253H94.1278V18.5264H94.176V18.4274C94.176 18.4274 94.245 18.3921 94.2725 18.3779C94.307 18.286 94.245 18.3002 94.2243 18.279V18.2295H94.2725C94.2519 18.18 94.245 18.1305 94.2243 18.081H94.2725V17.9821H94.3208V17.5792H94.369V17.4802C94.4035 17.459 94.438 17.4449 94.4655 17.4308C94.5138 17.3247 94.4173 17.0773 94.4173 17.0773C94.438 17.0773 94.4517 17.0773 94.4655 17.0773V16.9289H94.5138V16.6744H94.5689V16.2221H94.6103V16.0171H94.6585V15.7626H94.7068V15.3597H94.7619C94.7895 15.2466 94.7068 15.1406 94.7068 15.1123H94.7619C94.7757 15.0487 94.7964 14.978 94.8102 14.9144H94.8584V14.6105H94.8102V14.561H94.8584V14.2076H94.8102V14.151H94.8584V13.8542H94.9067V13.4018H94.8584C94.8102 13.4725 94.7619 13.5361 94.7068 13.5997H94.6172C94.5758 13.6562 94.6516 13.6492 94.6654 13.6492C94.6792 13.84 94.6034 13.8683 94.4655 13.9036C94.4104 14.1722 94.2932 14.1369 94.176 14.3065H94.1278V14.5044H94.0313C93.9968 14.5751 93.9555 14.5751 93.9348 14.6105C93.8314 14.7589 93.8383 14.8579 93.6453 14.9144C93.6246 14.9639 93.6108 15.0134 93.597 15.0628H93.5419C93.4592 15.1901 93.597 15.1618 93.3971 15.2113C93.3696 15.3244 93.3489 15.3385 93.2938 15.4163H93.2524V15.5152C93.2524 15.5152 93.1835 15.5506 93.1559 15.5718C93.1076 15.6354 93.0594 15.7061 93.0043 15.7697C92.9767 15.7909 92.9491 15.805 92.9147 15.8262C92.9009 15.8757 92.8871 15.9252 92.8664 15.9747H92.7699C92.7492 16.01 92.7354 16.0454 92.7217 16.0736C92.6734 16.109 92.6252 16.1443 92.5769 16.1726V16.2715C92.4459 16.3917 92.315 16.5119 92.184 16.625V16.731C92.184 16.731 92.122 16.7593 92.0875 16.7805V16.8299C92.0255 16.8865 91.9772 16.8299 91.8945 16.8794C91.7636 16.943 91.6464 17.1198 91.605 17.2753H91.5016C91.4741 17.3318 91.4396 17.3883 91.3982 17.4308C91.3569 17.4449 91.3017 17.459 91.2535 17.4802C91.2121 17.5509 91.2742 17.6287 91.2121 17.6852C91.1294 17.7064 91.0467 17.7206 90.964 17.7418V17.7912H90.9157C90.9364 17.8266 90.9433 17.8619 90.964 17.8902C90.9364 17.9043 90.9089 17.9185 90.8675 17.9397C90.7779 18.0598 90.9226 18.0316 90.7227 18.0881C90.6883 18.2224 90.6538 18.2012 90.6262 18.3355C90.4677 18.3779 90.447 18.4062 90.4333 18.59H90.3368V18.6395H90.2403C90.2265 18.6748 90.1989 18.7031 90.192 18.7384H90.1506V18.8939C90.1162 18.901 90.0817 18.9222 90.0473 18.9434V19.0424H89.999C89.999 19.0424 89.9645 19.113 89.9508 19.1413C89.8405 19.2261 89.7233 19.3109 89.6061 19.3887C89.5923 19.4594 89.5785 19.523 89.5579 19.5937C89.5234 19.6078 89.4889 19.629 89.4614 19.6432C89.3442 19.7704 89.1098 19.9754 89.0685 20.145C88.9375 20.1804 88.9582 20.1521 88.9237 20.2935H88.8272C88.7928 20.3712 88.7859 20.4136 88.7859 20.5479C88.7169 20.5691 88.648 20.5833 88.586 20.5974V20.6469H88.4895C88.4068 20.7176 88.4688 20.7741 88.4895 20.8519C88.3585 20.9508 88.2276 21.0568 88.1035 21.1487V21.3042C88.0346 21.3325 87.9656 21.3679 87.9036 21.4032V21.5516H87.8554C87.8554 21.5516 87.8278 21.6152 87.8071 21.6506H87.7106V21.7001C87.6141 21.7849 87.559 21.792 87.5176 21.9475H87.4211C87.3384 22.0888 87.1936 22.2585 87.0282 22.3009V22.4493C86.8628 22.5977 86.6974 22.7462 86.5388 22.9017C86.5182 22.937 86.4975 22.9724 86.4906 23.0006H86.3872C86.3665 23.036 86.3527 23.0713 86.3389 23.1067H86.2424V23.1562H86.0908C86.0081 23.2551 85.9254 23.3541 85.8427 23.453C85.7806 23.4672 85.7117 23.4884 85.6428 23.5025C85.629 23.5308 85.6152 23.5732 85.5945 23.6015H85.4498V23.6509C85.3808 23.6651 85.3188 23.6863 85.2568 23.7004V23.7499H85.1603C85.1603 23.7499 85.1258 23.8135 85.112 23.8489H84.919V23.8983C84.8156 23.9125 84.857 23.757 84.7191 23.7994C84.7054 23.8347 84.6847 23.8701 84.6709 23.8983H84.4228V23.9478C84.1815 24.0326 84.0712 23.9478 83.7886 23.9478C83.7404 23.863 83.6921 23.7782 83.6439 23.7004H83.5474V23.6509C83.3957 23.552 83.2992 23.5449 83.251 23.347C83.1683 23.3329 83.0855 23.3117 83.0028 23.2905C82.9684 23.1067 82.8857 23.0996 82.8581 22.8946H82.7064V22.8451C82.5962 22.7603 82.4032 22.4988 82.3687 22.3433H82.2722C82.224 22.1312 82.0654 21.9687 82.031 21.7849C81.9965 21.6789 82.0792 21.6364 82.0792 21.6364V20.9296H82.1275C82.1481 20.8165 82.031 20.6539 82.0792 20.4772H82.1275V20.2228H82.1757C82.2102 19.8694 82.2446 19.523 82.2791 19.1696H82.3273V19.0706H82.3825V18.8232H82.4307C82.4514 18.6748 82.4652 18.5193 82.4859 18.3709C82.5134 18.3567 82.5479 18.3355 82.5824 18.3143V18.0174H82.6306V17.8619H82.6789V17.6075C82.6789 17.6075 82.7478 17.5721 82.7823 17.558C82.8167 17.4096 82.8512 17.254 82.8788 17.1056H82.927V17.0067H82.9753V16.8087C82.9753 16.8087 83.0442 16.7734 83.0718 16.7593V16.5543C83.0718 16.5543 83.1338 16.526 83.1683 16.5048V16.3564H83.2165C83.2441 16.2503 83.2786 16.1584 83.313 16.0524H83.3544V15.805H83.4095C83.4371 15.699 83.4715 15.6 83.506 15.5011H83.5543V15.4021H83.6025V15.3032H83.6508V15.1971H83.699C83.7197 15.0982 83.7266 14.9992 83.7473 14.9003C83.7817 14.8861 83.8093 14.8649 83.8507 14.8508V14.7518H83.8989V14.6529H83.9403V14.5044C83.9816 14.4903 84.0092 14.4762 84.0436 14.455C84.0574 14.4055 84.0712 14.356 84.0919 14.3065H84.1401V14.151C84.1401 14.151 84.2091 14.1228 84.2366 14.1015V13.946H84.2918V13.8471H84.34C84.3607 13.7764 84.3745 13.7128 84.3883 13.6421H84.4365V13.4937H84.4917V13.3947H84.5399V12.9423C84.3194 12.9423 84.2435 12.9989 84.0988 13.0413H83.7542V13.0908H83.6577V13.1473C83.3475 13.1615 83.0373 13.1756 82.7271 13.1968V13.2463H82.3342V13.3028H82.1826V13.3523C82.0999 13.3382 82.0241 13.324 81.9413 13.3028V13.3523C81.7483 13.3382 81.5485 13.324 81.3555 13.3028H81.2107V13.3523C80.8799 13.3382 80.5559 13.324 80.225 13.3028V13.2463C80.1837 13.2604 80.1285 13.2816 80.0803 13.3028V13.2463C79.9218 13.2321 79.7563 13.2109 79.5978 13.1968V13.1473H79.4944V13.0908C79.3841 13.0766 79.267 13.0554 79.1498 13.0413C79.1153 12.9918 79.0808 12.9423 79.0533 12.8929H78.9085V12.8434C78.8603 12.8222 78.812 12.808 78.7638 12.7868C78.7362 12.7373 78.6948 12.6879 78.6673 12.6384C78.495 12.5324 78.4467 12.7161 78.3709 12.4334C78.171 12.3698 78.3226 12.3981 78.2261 12.285H78.1779V12.2355H78.0814V12.186H77.9849V12.1365C77.9366 12.1153 77.8884 12.1012 77.8333 12.0871V11.9386C78.1021 11.974 78.4743 12.2002 78.8189 12.0871V12.0446H79.0119V11.9881H79.1567V11.9386H79.3014V11.8891H79.4462V11.8397C79.5151 11.8255 79.584 11.8043 79.6461 11.7902V11.7336C79.8322 11.6983 80.032 11.663 80.225 11.6347V11.5852H80.3767V11.5287H80.4801V11.4862C80.5559 11.4721 80.6386 11.4509 80.7213 11.4297V11.3873H80.8178V11.3378H81.066C81.0798 11.3025 81.0935 11.2671 81.1142 11.2318H81.3072V11.1823H81.4106V11.1328C81.5071 11.1116 81.6036 11.0975 81.7001 11.0833V11.0339C81.8104 11.0127 81.9207 10.9985 82.0447 10.9844V10.9208H82.1826V10.8784H82.286V10.8289H82.4859V10.7723H82.5824V10.7229C82.8098 10.6663 83.0373 10.6168 83.2717 10.5674V10.5179H83.4164V10.4684C83.5749 10.4331 83.7404 10.3977 83.9058 10.3694V10.32C84.0505 10.3058 84.2022 10.2917 84.34 10.2705V10.221C84.409 10.2069 84.471 10.1857 84.5399 10.1715V10.122C84.6502 10.1079 84.7674 10.0867 84.8846 10.0726V10.0231H85.0293V9.97361H85.2775V9.91706H85.4705V9.86758H85.6634V9.81811H85.9598V9.76863H86.2562V9.71915H86.3527V9.66967C86.4217 9.65553 86.3389 9.70501 86.401 9.71915C86.5664 9.70501 86.7318 9.68381 86.8904 9.66967C86.911 9.62019 86.9248 9.57071 86.9455 9.52123H86.9869V9.57071H87.1385V9.62019H87.7244V9.57071H87.9243V9.62019C88.0208 9.60605 88.1242 9.58485 88.2207 9.57071C88.7101 9.58485 89.1994 9.60605 89.6888 9.62019V9.66967H90.2265V9.71915H90.323V9.76863C90.4608 9.78276 90.5849 9.80397 90.7227 9.81811C90.7365 9.99482 90.7779 9.97361 90.8124 10.122C90.6814 10.1574 90.709 10.1362 90.6676 10.2705H90.5711C90.5091 10.3694 90.4608 10.3765 90.4195 10.5179H90.2816C90.2403 10.6592 90.2678 10.631 90.13 10.6663C89.9852 10.8289 89.9576 10.6946 89.7853 10.7653C89.7715 10.8006 89.7509 10.836 89.7371 10.8642H89.4958V10.9066H89.3924V10.9703H89.2477C89.2201 11.0197 89.1857 11.0692 89.1512 11.1187C89.0064 11.1682 88.8548 11.2176 88.7101 11.2671V11.3661C88.5584 11.3802 88.4619 11.4368 88.3654 11.5075C88.3516 11.5499 88.3378 11.5852 88.3241 11.6135C88.2551 11.6276 88.1862 11.6417 88.1311 11.663C88.1035 11.6983 88.0966 11.7266 88.0759 11.7619C87.9312 11.7902 87.7795 11.8255 87.6348 11.8609C87.559 11.9457 87.5038 12.0305 87.4418 12.1083C87.3384 12.1295 87.2419 12.1365 87.1454 12.1577V12.2072H87.0489V12.2567H86.849V12.3132H86.656C86.6353 12.3486 86.6215 12.3839 86.6078 12.4122C86.5595 12.4334 86.5113 12.4475 86.463 12.4688V12.6172C86.6905 12.6808 86.7112 12.8716 86.849 13.0201C86.9179 13.0696 86.98 13.1261 87.0489 13.1685V13.6138H86.9938C86.98 13.6845 86.9593 13.7481 86.9524 13.8188C86.9179 13.8329 86.8835 13.8542 86.849 13.8683V13.9743H86.8008C86.787 14.0521 86.7594 14.144 86.7525 14.2217C86.7112 14.2429 86.6836 14.2571 86.656 14.2712V14.4691H86.6078V14.5751C86.5595 14.6105 86.5113 14.6458 86.463 14.6741V14.7236H86.5113V14.773H86.463V14.971H86.4079C86.3872 15.0699 86.3734 15.1689 86.3596 15.2749H86.3045V15.3739H86.2631C86.2424 15.5223 86.2287 15.6707 86.2149 15.8262C86.1804 15.8404 86.1459 15.8545 86.1184 15.8757V16.0807C86.0701 16.109 86.0219 16.1514 85.9736 16.1797V16.3281H85.9254V16.4765H85.8771V16.731H85.8289C85.8151 16.8087 85.8013 16.9006 85.7806 16.9784H85.7324V17.0773H85.6841V17.3318H85.6359C85.6221 17.3883 85.6083 17.459 85.5876 17.5226H85.5394V17.7771C85.5394 17.7771 85.4704 17.8125 85.436 17.8266V17.9821H85.3877V18.18C85.3257 18.2295 85.2637 18.279 85.1947 18.3355V18.6889C85.1947 18.6889 85.1258 18.7243 85.0982 18.7384V18.8444H85.05V18.9434C85.05 18.9434 84.9811 18.9858 84.9535 19.0424H84.9052C84.919 19.1272 84.9328 19.2049 84.9535 19.2897H84.9052V19.6997C84.9052 19.6997 84.8363 19.728 84.8087 19.7492V20.35H84.857C84.9466 20.244 84.9535 20.3076 85.0569 20.244V20.1945H85.1534C85.1534 20.1945 85.1878 20.1309 85.2016 20.0955C85.2499 20.0814 85.2981 20.0602 85.3464 20.0461C85.4291 19.94 85.5118 19.8411 85.5945 19.7421H85.691C85.7737 19.6432 85.8633 19.5442 85.9392 19.4382H86.0357C86.1046 19.3534 86.1666 19.2756 86.2356 19.1908H86.3252C86.4217 19.0706 86.525 18.9505 86.6215 18.8444H86.718C86.8214 18.7243 86.9179 18.597 87.0144 18.4839H87.1178C87.1661 18.4133 87.2143 18.3496 87.2626 18.286C87.3246 18.2366 87.3935 18.1871 87.4625 18.1376C87.4694 18.1093 87.49 18.074 87.5107 18.0386H87.6072C87.6072 18.0386 87.6417 17.968 87.6555 17.9397C87.7175 17.8902 87.7864 17.8407 87.8485 17.7842C87.8691 17.7488 87.8829 17.7135 87.8967 17.6852H88.0001V17.6287C88.069 17.5721 88.0828 17.558 88.1931 17.5226V17.3742H88.2896C88.3999 17.2753 88.5171 17.1692 88.6342 17.0703C88.6618 17.0208 88.6963 16.9713 88.7307 16.9148H88.8341C88.8617 16.8724 88.8962 16.8229 88.9237 16.7734H88.972V16.6744C89.0547 16.6179 89.1374 16.5684 89.2201 16.526V16.427C89.5923 16.0595 89.9714 15.6919 90.3437 15.3173C90.5435 15.1053 90.7917 14.6105 91.1294 14.5681C91.1432 14.5186 91.1639 14.462 91.1777 14.4196H91.2259C91.2397 14.3701 91.2673 14.3207 91.2742 14.2712C91.3086 14.2571 91.3431 14.2429 91.3707 14.2217C91.3845 14.1793 91.3982 14.1228 91.4189 14.0733H91.5154C91.5499 14.0238 91.5843 13.9743 91.6119 13.9178H91.6602C91.7084 13.833 91.7567 13.7481 91.8049 13.6704C91.9566 13.5573 92.0324 13.5926 92.1013 13.3664H92.1978C92.2736 13.2251 92.4184 13.0625 92.5907 13.013C92.6114 12.9635 92.6252 12.9141 92.6458 12.8646H92.6941C92.7906 12.7091 92.7561 12.6384 92.9905 12.6172V12.5182C93.0318 12.49 93.0801 12.4546 93.1352 12.4193C93.149 12.3698 93.1697 12.3203 93.1835 12.2708H93.28C93.3144 12.2214 93.3489 12.1719 93.3696 12.1224H93.473C93.5005 12.0729 93.535 12.0305 93.5695 11.974C93.6039 11.9528 93.6384 11.9386 93.6729 11.9245V11.776C93.8383 11.7336 93.7969 11.67 93.9624 11.6276C93.983 11.5781 93.9968 11.5216 94.0106 11.4721H94.0589V11.3732H94.1071C94.176 11.3025 94.1347 11.3025 94.2519 11.2742V11.1258C94.4311 10.9561 94.6103 10.7865 94.7895 10.6168C94.8102 10.5674 94.824 10.5179 94.8446 10.4684H94.9411C95.0583 10.3341 95.1686 10.1998 95.2858 10.0655C95.3065 9.83224 95.3133 9.59899 95.334 9.35866H95.3823V9.21022H95.4305V9.11127H95.4788V8.75785H95.527C95.5408 8.59528 95.5615 8.42563 95.5753 8.25599H95.527V8.05101H95.4788C95.4581 7.93792 95.4443 7.81775 95.4305 7.70466H95.334V7.59863L95.2789 7.64811Z" fill="white"/>
<path d="M48.794 20.4984C48.9595 20.4489 48.9181 20.3924 49.0904 20.3429C49.1318 20.1944 49.1456 20.1803 49.2834 20.1379V20.0389H49.3799C49.4902 19.8481 49.6832 19.7421 49.8211 19.5866C49.8417 19.53 49.8486 19.4805 49.8693 19.4381C49.9245 19.424 49.9658 19.4099 50.0141 19.3887C50.0347 19.3462 50.0416 19.2968 50.0623 19.2402C50.1933 19.1271 50.3173 19.007 50.4552 18.8868C50.4759 18.8585 50.4897 18.8232 50.5035 18.7949C50.5379 18.7808 50.5724 18.7596 50.6068 18.7454C50.6964 18.5758 50.5241 18.5687 50.7998 18.491C50.8343 18.3567 50.8136 18.3779 50.9446 18.3425C50.9791 18.2436 51.0135 18.1446 51.048 18.0386C51.1169 18.0174 51.1789 18.0103 51.241 17.9891C51.3237 17.6781 51.5649 17.6428 51.5856 17.2328H51.5443V17.0349C51.303 16.8652 51.303 16.5613 50.9515 16.4835C50.917 16.3139 50.8274 16.2715 50.6551 16.2291V16.1301H50.5586C50.5379 16.017 50.5448 16.0029 50.5103 15.9251H50.4621V15.4798C50.5103 15.4657 50.5586 15.4445 50.6137 15.4233V15.3738H50.7033V15.3243H50.8481V15.2749C50.9446 15.2395 51.048 15.2112 51.1445 15.1759V15.1264H51.3375V15.0769H51.434V15.0275C51.6339 14.9921 51.8269 14.9638 52.0199 14.9285C52.075 14.8578 52.1233 14.7942 52.1715 14.7235C52.3163 14.7447 52.461 14.7659 52.6126 14.7801C52.6471 14.7659 52.6333 14.667 52.716 14.674C52.7229 14.7094 52.7505 14.7447 52.7574 14.7801H53.102C53.102 14.7801 53.1296 14.8437 53.1503 14.879H53.295V14.9285H53.4398V14.978H53.8327V15.0275H53.9292V15.0769H54.0739C54.0739 15.0769 54.1015 15.1406 54.1222 15.1759C54.1635 15.19 54.2187 15.2112 54.2738 15.2254V15.2749C54.3152 15.289 54.3703 15.3102 54.4185 15.3243C54.4323 15.3879 54.4461 15.4586 54.4668 15.5293H54.5082V15.6777C54.5426 15.6919 54.5771 15.706 54.6116 15.7272V15.9181C54.6116 15.9181 54.6805 15.9534 54.708 15.9746C54.7632 16.0806 54.7425 16.2715 54.8045 16.3775C54.839 16.3917 54.8735 16.4129 54.901 16.427C54.9975 16.632 54.839 16.7663 54.901 16.9289C54.9286 16.9501 54.9631 16.9642 54.9975 16.9854V17.6357C54.9975 17.6357 54.9286 17.671 54.901 17.6852V17.8407C54.901 17.8407 54.8321 17.876 54.8045 17.8902V18.1446C54.7632 18.1588 54.7356 18.1729 54.708 18.1941V18.2931C54.6391 18.3425 54.5771 18.3991 54.5082 18.4415V18.5899H54.4668C54.3841 18.7596 54.4186 18.8373 54.2256 18.8868C54.2187 19.0211 54.2187 19.0635 54.1704 19.1413H54.1291C54.1084 19.2261 54.1015 19.3038 54.0808 19.3887C54.0326 19.424 53.9774 19.4593 53.9361 19.4876C53.9016 19.5936 53.8671 19.6926 53.8396 19.7915C53.7706 19.841 53.7086 19.8905 53.6397 19.94V20.0884C53.6397 20.0884 53.5776 20.1167 53.5432 20.1379V20.2934H53.4949C53.4053 20.4065 53.3777 20.3994 53.3433 20.5903H53.2468C53.1641 20.7104 53.0814 20.8235 52.9986 20.9437C52.9504 20.972 52.9021 21.0144 52.8539 21.0427C52.8401 21.0921 52.8194 21.1416 52.8056 21.1911C52.716 21.2547 52.6471 21.3183 52.5644 21.389C52.5437 21.4526 52.5299 21.5233 52.5093 21.594H52.461V21.799H52.4128C52.4128 21.799 52.3783 21.8626 52.3645 21.8979H52.268C52.2404 21.9474 52.1991 21.9969 52.1715 22.0464C52.137 22.0605 52.1026 22.0746 52.0681 22.0958V22.1948C51.9854 22.2443 51.9027 22.2938 51.8269 22.3432V22.4422C51.7786 22.4775 51.7304 22.5058 51.6752 22.5341C51.6614 22.6048 51.6477 22.6755 51.627 22.7391C51.558 22.7673 51.496 22.8027 51.4271 22.838C51.4064 22.8875 51.3995 22.937 51.3788 22.9794C51.3168 23.0359 51.2479 23.0854 51.1858 23.1278C51.1652 23.1844 51.1514 23.2339 51.1376 23.2833H51.0411C50.9584 23.3894 50.8757 23.4883 50.793 23.5802H50.6965L50.6068 23.6792V23.7852C50.6068 23.7852 50.5379 23.8135 50.5035 23.8347V23.9336C50.4552 23.9478 50.4001 23.9619 50.3518 23.9831C50.338 24.0114 50.3173 24.0538 50.3036 24.0891H50.2071V24.2376H50.1588C50.1381 24.287 50.1243 24.3365 50.1106 24.3931C50.083 24.4072 50.0416 24.4213 50.0141 24.4425V24.492C49.952 24.5062 49.89 24.5274 49.8211 24.5415V24.591C49.759 24.6405 49.6901 24.6899 49.6212 24.7394V24.8384L49.5247 24.9373H49.4282C49.311 25.0292 49.3455 25.1282 49.1387 25.1847C49.1042 25.319 49.056 25.3473 48.9801 25.4392H48.9319V25.5947C48.9319 25.5947 48.8699 25.63 48.8354 25.6442V25.7431C48.8009 25.7643 48.7665 25.7785 48.7389 25.7926V25.8916C48.6907 25.9269 48.6424 25.9622 48.5942 25.9976C48.5804 26.0471 48.5597 26.0966 48.5459 26.146C48.4425 26.2309 48.346 26.3157 48.2495 26.4005V26.4995C48.1944 26.5843 47.9807 26.7186 47.8635 26.7539C47.8084 26.973 47.6981 26.9023 47.6636 27.1568C47.5602 27.1851 47.5396 27.1922 47.4706 27.2558V27.3052H47.3672C47.3466 27.3406 47.3397 27.3759 47.319 27.4042C47.2501 27.4183 47.188 27.4325 47.1191 27.4537C47.1053 27.489 47.0846 27.5244 47.0708 27.5597H46.9744V27.6092H46.8227V27.6587H46.5746V27.7081H46.4781V27.7576H46.3264V27.8071C46.0645 27.8849 46.0507 27.6375 45.7888 27.7081V27.7576C45.5544 27.8142 45.4648 27.6587 45.3477 27.6092H45.1478V27.5597H45.0513V27.5102H44.9134C44.8858 27.4749 44.8789 27.4395 44.8583 27.4113H44.7135V27.3618H44.617C44.5688 27.2911 44.5205 27.2275 44.4723 27.1639H44.3206C44.2931 27.1144 44.2517 27.0579 44.2241 27.0154H44.1759V26.9094C44.1759 26.9094 44.1138 26.8741 44.0794 26.8599V26.761C44.0449 26.7468 44.0105 26.7327 43.9829 26.7115V26.6055H43.8864C43.8519 26.4712 43.8175 26.4924 43.783 26.3581C43.6038 26.3086 43.6176 26.2521 43.5417 26.1036H43.4935V25.9623H43.4452C43.3763 25.8704 43.3143 25.7855 43.2454 25.7007C43.1971 25.6866 43.1489 25.6724 43.1006 25.6512V25.4463C43.0179 25.3968 42.9352 25.3402 42.8594 25.2978V25.1918H42.8042V25.0928C42.8042 25.0928 42.7422 25.0575 42.7077 25.0434V24.9444C42.7077 24.9444 42.6457 24.9091 42.6112 24.8949V24.796C42.5492 24.7465 42.4803 24.697 42.4113 24.6475V24.4496H42.3631V24.2446H42.3148V23.6933H42.2666C42.2183 23.5307 42.2321 23.0571 42.2666 22.944H42.3148V22.5906H42.3631C42.3907 22.4563 42.3217 22.3574 42.3148 22.2867C42.3424 22.2655 42.3769 22.2513 42.4113 22.2372C42.3975 22.1877 42.3838 22.1383 42.3631 22.0888H42.4113V21.9898H42.4665C42.4803 21.8909 42.494 21.7919 42.5147 21.6929H42.563V21.594H42.6112V21.3395C42.6112 21.3395 42.6801 21.3042 42.7077 21.29V21.0356H42.756V20.8871H42.8042V20.6398H42.8594V20.5408H42.9007C42.9145 20.456 42.9283 20.3712 42.949 20.2934H42.9972V19.9895H43.0455V19.8905C43.0455 19.8905 43.1144 19.8622 43.142 19.834V19.735H43.1971C43.2247 19.5866 43.2591 19.4311 43.2867 19.2826H43.3419V19.1766H43.3832V18.9292H43.4384V18.8302H43.4866V18.7313C43.4866 18.7313 43.5417 18.6959 43.5831 18.6818V18.5263H43.6314C43.652 18.4486 43.6658 18.3567 43.6796 18.2718H43.7278C43.7761 18.1941 43.7692 18.1517 43.7761 18.0174H43.8795C43.8933 17.9255 43.9071 17.8195 43.9277 17.7205H43.976V17.5226C43.976 17.5226 44.038 17.4873 44.0725 17.4661V17.2681C44.1207 17.2328 44.169 17.2045 44.2172 17.1692V17.0702H44.2655V16.9147C44.2655 16.9147 44.3344 16.8864 44.362 16.8652V16.7168C44.362 16.7168 44.424 16.6815 44.4585 16.6673V16.5754H44.5067V16.4694H44.555V16.3139C44.555 16.3139 44.617 16.2856 44.6515 16.2644V16.1584C44.6859 16.1443 44.7204 16.1231 44.7549 16.1089V16.01H44.7962V15.9039C44.8927 15.7414 44.9203 15.8403 44.9479 15.5576H45.0444C45.0582 15.5081 45.0788 15.4657 45.0995 15.4092H45.1409V15.3102H45.1891V15.2112C45.2443 15.1759 45.2856 15.1406 45.3408 15.1052V14.9568H45.389C45.4097 14.9073 45.4235 14.8578 45.4442 14.8083C45.4786 14.7942 45.5131 14.7801 45.5475 14.7589V14.6034C45.5475 14.6034 45.6096 14.568 45.6371 14.5539V14.4549C45.6854 14.4196 45.7405 14.3842 45.7888 14.356C45.8026 14.2923 45.8164 14.2217 45.837 14.151C45.8715 14.1368 45.8991 14.1156 45.9335 14.1015V13.9531C46.0163 13.8894 46.0921 13.8188 46.1748 13.7481C46.1955 13.6845 46.2092 13.6138 46.223 13.5502C46.2506 13.529 46.292 13.5148 46.3195 13.4936V13.3947C46.3609 13.3735 46.3885 13.3522 46.4229 13.3452V13.2392C46.4712 13.2109 46.5194 13.1755 46.5677 13.1402V13.0412H46.6159V12.9423H46.6711C46.6849 12.8928 46.7055 12.8433 46.7193 12.7938H46.8158C46.8572 12.6454 46.9675 12.497 47.064 12.398C47.0984 12.3768 47.126 12.3627 47.1673 12.3485C47.1811 12.2779 47.1949 12.2072 47.2087 12.1436C47.2432 12.1224 47.2776 12.1153 47.3121 12.0941V11.9881C47.3121 11.9881 47.3741 11.9598 47.4086 11.9456V11.8396H47.4568C47.4706 11.7901 47.4844 11.7407 47.5051 11.6912H47.6016C47.6429 11.5215 47.7463 11.4509 47.8497 11.3378H47.898V11.2388C47.898 11.2388 47.9669 11.2035 47.9945 11.1893V11.0833H48.0427C48.153 10.949 48.2357 10.9843 48.2909 10.7794H48.3943V10.6309H48.4908V10.5249H48.5873C48.6217 10.3906 48.67 10.3623 48.732 10.2775H48.7803V10.1785C48.8423 10.122 48.9112 10.0725 48.9664 10.0301V9.93115C49.0008 9.90995 49.0422 9.89581 49.0698 9.88167V9.83219C49.0698 9.83219 49.1387 9.79685 49.1663 9.77565V9.67669C49.2628 9.52825 49.3179 9.64842 49.3593 9.37275H49.4626C49.5109 9.30206 49.5591 9.23845 49.6074 9.17483H49.6556V9.07588H49.7108V8.96985H49.7521C49.8486 8.79314 49.8486 8.60229 49.8486 8.31956H49.9451C50.0485 8.17112 50.145 8.02269 50.2415 7.86718H50.3311V7.76822H50.4345C50.5586 7.55617 50.8343 7.50669 50.9722 7.27344C51.0342 7.30878 50.9791 7.26637 51.0204 7.32292C51.1376 7.40774 51.2617 7.67634 51.3099 7.8177V7.97321H51.3582V8.07217C51.3582 8.07217 51.4271 8.10751 51.4547 8.12164V8.52454C51.4547 8.85676 51.4891 9.45757 51.4547 9.62721C51.3857 9.95942 51.5029 10.3058 51.4064 10.5814H51.3582V10.7299H51.3099C51.2823 10.8218 51.3582 10.8783 51.3582 10.8783C51.3651 10.949 51.3306 10.8571 51.3099 10.9278C51.2823 11.0621 51.3444 11.154 51.3582 11.2317C51.3306 11.2459 51.2961 11.26 51.2617 11.2812C51.2272 11.465 51.1996 11.6488 51.1721 11.8325C51.1376 11.8467 51.1031 11.8679 51.0756 11.882C51.048 12.0799 51.0411 12.2849 51.0204 12.4828H50.9722V12.7302H50.9239V12.9847H50.8757V13.1826H50.8274V13.331H50.7792V13.5855H50.7309V13.6845H50.6827V13.7764C50.6482 13.7976 50.6137 13.8117 50.5931 13.8329V14.3348C50.5931 14.3348 50.5241 14.363 50.4897 14.3842V14.5397H50.4414V14.6387C50.4414 14.6387 50.3725 14.674 50.338 14.6882C50.3242 14.8225 50.3036 14.9568 50.2898 15.0911C50.2208 15.1406 50.1588 15.1971 50.0968 15.2395V15.3385H50.0485C50.0692 15.4445 50.0761 15.5434 50.0968 15.6424C50.0485 15.6707 50.0003 15.706 49.9451 15.7414V15.9463H49.9038V16.0453H49.8486V16.2927C49.8486 16.2927 49.7866 16.328 49.7521 16.3492C49.7659 16.4129 49.7866 16.4835 49.8004 16.5542H49.7521C49.7177 16.6249 49.7108 16.7592 49.6556 16.8016H49.5109C49.5109 16.8016 49.4764 16.8723 49.4626 16.9006H49.4075V16.9995H49.3593V17.148H49.311V17.3459H49.2628V17.5014H49.2145C49.2007 17.5862 49.18 17.671 49.1663 17.7559H49.118C49.0973 17.8195 49.0835 17.8902 49.0698 17.9538H49.0215C49.0008 18.0386 48.987 18.1234 48.9595 18.2082C48.9112 18.2436 48.8699 18.2718 48.8216 18.3072C48.7872 18.4556 48.7527 18.6111 48.7251 18.7666C48.6907 18.7808 48.6631 18.802 48.6286 18.8161V18.9716H48.5804V19.0706H48.5321V19.325C48.4632 19.3674 48.4012 19.424 48.3322 19.4735V19.6785H48.284V19.8198H48.2357V19.9259H48.1944C48.1737 20.0743 48.153 20.2298 48.1392 20.3782C48.0772 20.4277 48.0152 20.4843 47.9393 20.5337V20.6327H47.8911V20.8306H47.8428V20.979H47.7877C47.767 21.0851 47.7326 21.184 47.6981 21.283H47.7463V21.3325H47.7946V21.283H47.9462C47.9945 21.2123 48.0427 21.1487 48.091 21.078C48.1461 21.0568 48.1944 21.0427 48.2426 21.0285C48.2909 20.9578 48.3391 20.8871 48.3943 20.8235C48.5528 20.7034 48.7251 20.7104 48.7871 20.4772L48.794 20.4984Z" fill="white"/>
<path d="M73.2359 7.98728C73.4082 8.00849 73.5943 8.02262 73.7735 8.03676V8.08624H73.87V8.13572H74.0699V8.19226C74.132 8.2064 74.194 8.22054 74.2629 8.24174V8.29122H74.4077C74.4077 8.29122 74.4352 8.36191 74.4559 8.39018C74.5249 8.41138 74.5869 8.42552 74.6558 8.43966C74.6696 8.475 74.6834 8.51034 74.6972 8.54568C74.7868 8.55982 74.8626 8.57396 74.9453 8.59516C75.0073 8.67998 75.0763 8.75774 75.1383 8.84256C75.2762 8.96272 75.4209 8.92031 75.483 9.1465C75.6139 9.17477 75.6622 9.24545 75.7793 9.29493C75.7793 9.39389 75.8758 9.64128 75.8758 9.64835H75.8276V9.79679H75.7793V9.89575H75.7242V10.2492H75.7793V10.2986H75.7242C75.7104 10.3976 75.6966 10.4966 75.6828 10.5955H75.7242V10.85H75.7793V11.4508H75.8276C75.8138 11.5003 75.7931 11.5497 75.7793 11.5992H75.8276C75.8414 11.7689 75.8621 11.9314 75.8758 12.1011H75.9241C75.9448 12.2142 75.8276 12.2919 75.8758 12.4545H75.9241V12.61H75.9723V12.7584H76.0206V13.0129H76.0688V13.3168H76.1171V13.4158H76.1653V13.6703H76.2136V13.7692H76.2618V14.0237H76.3101V14.1721H76.3583C76.3377 14.2428 76.317 14.3064 76.3101 14.3771H76.3583V14.6245H76.4066V14.78H76.4479V15.2324H76.5031V15.3808H76.5513V15.9321C76.5513 15.9321 76.6134 15.9675 76.6547 15.9887V16.1866H76.703V16.4411H76.6547C76.6685 16.5118 76.6823 16.5754 76.703 16.6461C76.703 16.6461 76.6271 16.6673 76.6547 16.745C76.6823 16.7592 76.7168 16.7804 76.7512 16.7945C76.7374 16.844 76.7168 16.8934 76.703 16.9429H76.7512V17.0984H76.7995V17.8477H76.7512V17.8972H76.7995V17.9961H76.8477C76.8753 18.1092 76.7443 18.1728 76.7512 18.2506H76.7995V18.9503H76.7512V19.7561H76.703C76.7168 19.8056 76.7305 19.8551 76.7512 19.9046H76.703V20.0035H76.6547V20.1025C76.6203 20.1237 76.5858 20.1308 76.5513 20.152C76.4962 20.3145 76.634 20.3145 76.6547 20.357V20.6044C76.6685 20.7033 76.6823 20.8093 76.703 20.9083H76.6547V21.2122H76.5513V21.6151C76.572 21.6858 76.6134 21.5939 76.5996 21.6646H76.5513V21.8201H76.5031C76.4893 22.0322 76.4686 22.2513 76.4479 22.4704C76.4135 22.4845 76.3859 22.5057 76.3514 22.5128V22.7673C76.3101 22.7814 76.2756 22.7956 76.2549 22.8168V23.5731H76.2067V23.6791H76.1584V23.877H76.1102V23.976H76.0619V24.4778C76.0619 24.4778 75.9999 24.5132 75.9654 24.5273C75.8827 24.6404 75.8 24.7606 75.7173 24.8737V25.1776H75.6759V25.2766C75.6277 25.319 75.5726 25.3472 75.5243 25.3755C75.5105 25.4815 75.4898 25.5734 75.4761 25.6795H75.4278C75.4278 25.6795 75.4002 25.7501 75.3727 25.7784H75.2762C75.2417 25.8279 75.2072 25.8774 75.1728 25.9268H75.0763C75.0625 26.1177 75.0349 26.1389 74.8833 26.1813C74.8281 26.4004 74.642 26.464 74.5938 26.6832C74.4215 26.7326 74.256 26.7821 74.0975 26.8316C74.001 26.8104 73.8976 26.8033 73.8011 26.7821V26.8316C73.7391 26.8528 73.6701 26.8669 73.6012 26.8811V26.9871C73.4703 27.0012 73.3117 27.1214 73.2083 27.079C73.1945 27.0507 73.1739 27.0154 73.1601 26.9871H73.0636V26.9306C72.9188 26.8952 72.7672 26.8669 72.6224 26.8316V26.7821C72.4915 26.7185 72.3743 26.669 72.2296 26.6337C72.1468 26.4075 72.0159 26.3156 72.0297 25.9905L72.0848 25.9339H72.0297C71.9607 25.8138 71.878 25.7925 71.8367 25.637C71.8849 25.6229 71.9401 25.6017 71.9883 25.5805C71.9607 25.5522 71.9538 25.5169 71.9401 25.4815H71.9883C72.0021 25.4179 72.0159 25.3472 72.0297 25.2766H72.0848V25.1281H72.1331V24.9231C72.2158 24.8595 72.2916 24.7888 72.3743 24.7252V24.5273H72.4226V24.4284H72.4777C72.4915 24.287 72.5053 24.1598 72.5259 24.0255C72.5742 23.9901 72.6156 23.9548 72.6707 23.9265V23.5236C72.7052 23.5024 72.7465 23.4883 72.7672 23.4671V23.1631H72.8154V23.0147H72.8637V22.5623H72.9119V22.3644H72.9602C72.9809 22.2159 72.9947 22.0675 73.0084 21.912H73.0567V21.3607H73.1049V21.1557H73.1532C73.2014 20.986 73.0705 20.8093 73.1049 20.7033C73.1394 20.6821 73.1739 20.668 73.2014 20.6538C73.2152 20.5054 73.2359 20.3499 73.2497 20.2015C73.2497 20.2015 73.167 20.159 73.2014 20.046H73.2497V19.947H73.291C73.3393 19.8056 73.2635 19.6996 73.2497 19.5936H73.3462C73.36 19.3745 73.3738 19.1553 73.3944 18.9362H73.4427C73.4289 18.8373 73.4151 18.7383 73.3944 18.6323H73.4427V18.5333H73.4978V18.3849H73.5461C73.5323 18.3283 73.5185 18.2789 73.4978 18.2294C73.5599 18.1092 73.4703 17.8194 73.5461 17.5791H73.5943V17.4236H73.6426C73.6288 17.2751 73.615 17.1196 73.5943 16.9712H73.6426C73.6633 16.5188 73.677 16.0594 73.6977 15.6141V15.2607C73.6839 15.197 73.6357 15.2819 73.6426 15.2112H73.6977V15.0627H73.746C73.7322 14.8436 73.7184 14.6245 73.6977 14.4054H73.6426V14.3064H73.5943C73.5805 14.2428 73.6288 14.3276 73.6426 14.2569V13.6066C73.5392 13.232 73.6081 12.9493 73.4978 12.6029V12.1011C73.4289 11.8608 73.5254 11.4437 73.4427 11.1398H73.3944C73.3669 11.0267 73.4496 11.0126 73.4427 10.9419H73.3944C73.3669 10.7722 73.4289 10.7086 73.4427 10.5884V9.63422H73.4978V9.4363H73.5461V8.58103H73.4978V8.475C73.4289 8.34777 73.3462 8.26295 73.2979 8.0721H73.2014V7.97314L73.2359 7.98728Z" fill="white"/>
<path d="M69.7067 9.48607C69.9135 9.54262 70.0582 9.71226 70.1961 9.84656C70.2099 9.8819 70.2305 9.91017 70.2443 9.94551C70.3064 9.98792 70.4373 9.98086 70.4856 10.0445V10.1434C70.4856 10.1434 70.5545 10.1788 70.5821 10.2V10.3979H70.6303C70.6441 10.4686 70.6648 10.5322 70.6786 10.5958C70.713 10.6099 70.7475 10.6311 70.782 10.6524V10.7513C70.782 10.7513 70.844 10.7867 70.8785 10.8008V10.9563C70.8785 10.9563 70.9405 10.9916 70.975 11.0058C71.0025 11.1754 71.037 11.338 71.0715 11.5147C71.099 11.5288 71.1335 11.543 71.168 11.5642C71.1749 11.6137 71.1955 11.6561 71.2162 11.7126H71.2645V11.9105H71.3127V12.059H71.361V12.4548C71.361 12.4548 71.4299 12.4901 71.4575 12.5043V12.5537H71.4092C71.4299 12.6386 71.4437 12.7234 71.4575 12.8082C71.5057 12.8436 71.5609 12.8789 71.6022 12.9072C71.6229 12.992 71.6298 13.0697 71.6505 13.1546C71.7194 13.204 71.7745 13.2535 71.8435 13.3101V13.9109H71.8917C71.8917 13.9109 71.8641 13.9745 71.8435 14.0098H71.8917V14.2148H71.94V14.4622H71.9882V14.6601H72.0296C72.0433 14.7237 71.9537 14.7449 71.9882 14.8651H72.0296V15.063H72.0847C72.064 15.1266 72.0502 15.1973 72.0296 15.2609H72.0847V15.3599H72.133V15.5649H72.1812V15.6709H72.2295V16.0667H72.2777C72.2432 16.2152 72.2157 16.3707 72.1812 16.5262H72.2295C72.2984 16.8018 72.2363 17.332 72.1812 17.5299C72.1605 17.8268 72.1467 18.1307 72.133 18.4276H72.0847V18.576H72.0296V18.7315H71.9882V18.88H71.94V19.1839C71.94 19.1839 71.8779 19.198 71.8917 19.2899H71.94V19.4878H71.8917V19.6433H71.8435V19.8413H71.7952C71.7745 19.9119 71.7607 19.9826 71.747 20.0462H71.6918V20.1452H71.6505V20.3926C71.6229 20.4421 71.4988 20.4279 71.554 20.5976C71.554 20.6117 71.7194 20.6541 71.6505 20.8026C71.6022 20.8238 71.554 20.8308 71.4988 20.852C71.4299 20.9227 71.4988 21.0005 71.4506 21.1065C71.423 21.1206 71.3816 21.1348 71.3541 21.156V21.4599C71.3541 21.4599 71.2851 21.4953 71.2576 21.5094C71.2438 21.5589 71.23 21.6154 71.2093 21.6578H71.1611V21.8557C71.1611 21.8557 71.0852 21.8911 71.0646 21.9123V22.1597C71.0094 22.195 70.9681 22.2304 70.9129 22.2586C70.8991 22.4141 70.8785 22.5555 70.8716 22.711H70.8233V22.8665H70.7751V23.0079C70.7406 23.0291 70.7061 23.0503 70.6717 23.0644V23.2129C70.6717 23.2129 70.6096 23.2411 70.5752 23.2694C70.5614 23.333 70.5476 23.3967 70.5269 23.4603C70.4511 23.531 70.3615 23.6016 70.2857 23.6653V23.7571H70.2374C70.1547 23.8914 70.2857 23.8561 70.0927 23.9126C70.0031 24.0257 69.9824 23.948 69.8446 24.0116V24.0611H69.7481V24.1176H69.6033V24.1671C69.3827 24.2307 69.0932 24.054 68.914 24.0116C68.9002 23.8914 68.9071 23.8844 68.8589 23.8137H68.8175V23.6087C68.7693 23.5804 68.7279 23.5451 68.6728 23.5097V23.4108H68.6245V23.2624H68.5832V23.1068H68.528V22.9089H68.4798V22.6545H68.4246V22.499H68.3764V21.7497H68.4246C68.404 21.5659 68.3971 21.3751 68.3764 21.1984H68.4246C68.4591 21.0994 68.4936 20.9934 68.528 20.8944H68.5832C68.6245 20.7743 68.528 20.6258 68.528 20.5905H68.5832V20.3855H68.6245C68.6452 20.2866 68.659 20.1876 68.6728 20.0886C68.7693 20.0745 68.8658 20.0604 68.9623 20.0392C68.9623 19.8837 68.9623 19.7988 69.0174 19.6928H69.0657V19.3818H69.1139V19.2899H69.1622V18.7386C69.1622 18.7386 69.2242 18.7032 69.2587 18.6891V18.4841H69.3C69.3345 18.2226 69.3689 17.954 69.3965 17.6783H69.4448V17.332H69.4861C69.4792 17.2118 69.4586 17.0917 69.4448 16.9786C69.4792 16.9644 69.5137 16.9432 69.5413 16.922V16.5757H69.5964V16.4202H69.6378C69.6584 16.3424 69.5619 16.2364 69.5964 16.0667H69.6378V16.0243H69.5964C69.5757 15.9042 69.6516 15.883 69.6378 15.8193H69.5964C69.5757 15.7275 69.5619 15.6214 69.5413 15.5225C69.4654 15.5366 69.3827 15.5507 69.2931 15.572C69.2587 15.6214 69.2311 15.678 69.1966 15.7275H69.1001C69.0657 15.7699 69.0312 15.8193 69.0036 15.8759C68.9071 15.9112 68.8037 15.9466 68.7141 15.9748C68.6866 16.0031 68.6797 16.0385 68.659 16.0738H68.5694C68.5349 16.1233 68.5005 16.1728 68.466 16.2222C68.2592 16.3565 68.1007 16.2222 68.0249 16.5262H67.9284V16.6251C67.8525 16.6393 67.7974 16.6605 67.7285 16.6746C67.7147 16.71 67.7009 16.7453 67.6802 16.7736C67.5699 16.8089 67.4596 16.8443 67.3425 16.8725C67.2873 17.0846 67.1839 17.0351 66.9496 17.028V17.127C66.8186 17.1482 66.7497 17.2047 66.6601 17.2754V17.3249H66.5567C66.5567 17.3249 66.5291 17.3956 66.5153 17.4239H66.4188C66.4188 17.4239 66.3844 17.4946 66.3637 17.5299H66.2672V17.5794H66.1707V17.6289H66.0811L65.9777 17.7278H65.8812C65.8467 17.7844 65.8123 17.8268 65.7847 17.8762C65.7089 17.8974 65.64 17.9116 65.5848 17.9328C65.571 17.9611 65.5572 17.9964 65.5435 18.0247C65.4263 18.06 65.3091 18.0954 65.1988 18.1307C65.1644 18.1802 65.1368 18.2297 65.1023 18.2791H64.9576C64.9369 18.3145 64.9231 18.3498 64.9093 18.3852C64.8404 18.3993 64.7715 18.4134 64.7094 18.4346C64.6956 18.47 64.675 18.5053 64.6612 18.5336H64.5647V18.5831C64.5026 18.6043 64.4337 18.6114 64.3717 18.6326V18.6891C64.2407 18.7457 64.1304 18.6679 64.027 18.7386C64.0064 18.7739 63.9926 18.8022 63.9788 18.8375C63.9168 18.8517 63.8478 18.8729 63.7858 18.887C63.772 18.9224 63.7513 18.9577 63.7375 18.993H63.6411V19.0425H63.5446C63.5101 19.092 63.4756 19.1415 63.4481 19.191H63.3516V19.2404C63.2551 19.2758 63.1586 19.3111 63.0552 19.3465V19.3889H62.807C62.7932 19.4242 62.7794 19.4596 62.7657 19.4878H62.6623V19.5373H62.4624V19.5939H62.3659V19.6433H62.2142V19.6928H61.9799V19.7423H61.8765C61.8765 19.7423 61.842 19.8059 61.8351 19.8413H61.7317V19.8978C61.6559 19.9119 61.5732 19.9331 61.4905 19.9473V19.9968H61.3871V20.0462C61.2906 20.0816 61.1872 20.1169 61.0907 20.1452V20.1947C60.9735 20.2159 60.8633 20.23 60.7461 20.2442V20.2936H60.6013V20.3431H60.5048V20.3926C60.4083 20.4138 60.3118 20.4279 60.2153 20.4421V20.4986H60.0154V20.5481C59.8156 20.6046 59.3606 20.5198 59.2779 20.4421H59.1814V20.3926C59.0091 20.2512 59.1676 20.3431 59.0849 20.1947C59.0505 20.1735 59.016 20.1593 58.9815 20.1452C58.954 20.0462 58.9195 19.9402 58.885 19.8413H58.8368C58.8506 19.6292 58.8712 19.4101 58.885 19.191H58.8368V19.092H58.7885V18.7881C58.9609 18.7103 59.0573 18.6114 59.1263 18.4346C59.1745 18.4559 59.2297 18.47 59.2779 18.4841V18.7386C59.6501 18.7457 59.8156 18.6608 60.0568 18.5336V18.4841H60.2084C60.2084 18.4841 60.236 18.4134 60.2567 18.3852C60.3532 18.3498 60.4497 18.3145 60.5531 18.2791C60.5669 18.2438 60.5875 18.2155 60.6013 18.1802C60.6634 18.159 60.7323 18.1448 60.8012 18.1307C60.815 18.0954 60.8288 18.06 60.8426 18.0247H60.9942C60.9942 18.0247 61.0287 17.9611 61.0425 17.9328H61.139V17.8762H61.2355V17.8268H61.332L61.4285 17.7278H61.525C61.525 17.7278 61.5594 17.6642 61.5732 17.6289C61.6559 17.6147 61.7386 17.5935 61.8282 17.5794C61.8351 17.544 61.8558 17.5087 61.8696 17.4733H61.973V17.4239H62.0695L62.1591 17.3249H62.2694C62.2832 17.2896 62.297 17.2542 62.3107 17.2189C62.3935 17.2047 62.4762 17.1835 62.552 17.1694C62.5865 17.1199 62.6209 17.0704 62.6485 17.021C62.7932 16.9715 62.9449 16.922 63.0896 16.8655V16.816H63.193C63.2206 16.7665 63.2482 16.717 63.2826 16.6675H63.4343V16.6181H63.5308V16.5686H63.6755V16.5191H63.772C63.7858 16.4838 63.7996 16.4484 63.8272 16.4131H63.9168V16.3636H64.0201V16.3071H64.1649V16.2576H64.2614C64.2614 16.2576 64.2959 16.194 64.3097 16.1516H64.413V16.1021H64.5095L64.606 16.0031H64.7025C64.7232 15.9678 64.737 15.9324 64.7508 15.8971C64.8335 15.89 64.9162 15.8688 64.992 15.8547C65.0127 15.8193 65.0196 15.7911 65.0403 15.7557H65.1437V15.7133H65.2333V15.6638C65.3229 15.6426 65.3987 15.6285 65.4883 15.6073C65.5021 15.5719 65.5159 15.5437 65.5366 15.5083H65.6331L65.7296 15.4023H65.8261V15.3528H65.9226V15.3034H66.0191V15.2539H66.1156V15.2044H66.2052V15.1549H66.3086V15.1054H66.4119V15.056H66.5084V15.0065C66.5705 14.9853 66.6394 14.9711 66.7014 14.957C66.7152 14.9217 66.729 14.8934 66.7497 14.858C66.8117 14.8368 66.8807 14.8227 66.9427 14.8086C66.9634 14.7803 66.9703 14.7449 66.9978 14.7025H67.0874L67.1839 14.6036H67.2804V14.5541H67.3769C67.3976 14.5188 67.4045 14.4834 67.4321 14.4551C67.5079 14.4339 67.5906 14.4198 67.6733 14.3986C67.694 14.3703 67.7147 14.335 67.7216 14.2996C67.8525 14.2078 67.9973 14.1441 68.1627 14.1017V14.0028C68.2179 13.9886 68.2592 13.9674 68.3075 13.9533V13.9038H68.404C68.5556 13.819 68.7072 13.7483 68.7486 13.5504H68.7072C68.6797 13.4514 68.6728 13.3525 68.6521 13.2465C68.2592 13.2606 67.8663 13.2818 67.4734 13.303V13.2465C67.3149 13.2323 67.1495 13.2182 66.9909 13.204H66.791C66.791 13.204 66.7566 13.2677 66.7428 13.303C66.6463 13.3171 66.5429 13.3313 66.4464 13.3525V13.303C66.2465 13.2818 66.0604 13.2606 65.8605 13.2465V13.204H65.764V13.1546H65.6124V13.204H65.5641V13.1546H65.2746C64.7852 13.0061 63.9995 12.9637 63.4618 13.1051C63.3309 13.0909 63.1999 13.0697 63.0689 13.0556V13.1051H62.5244V13.1546H62.2832V13.204H62.0833V13.2465C61.7386 13.2323 61.4009 13.2182 61.0563 13.204V13.2465C60.9598 13.2818 60.8633 13.3171 60.7668 13.3525V13.402H60.4704V13.4514H59.9327V13.5009H59.6363V13.5575C59.6019 13.5575 59.4709 13.4656 59.34 13.5009V13.5575H59.0918V13.6069C59.0229 13.6211 58.9608 13.6352 58.8988 13.6564V13.7059H58.7058V13.7554H58.6024V13.8049C58.4715 13.8261 58.3405 13.8402 58.2095 13.8614C58.1406 13.9462 58.0786 14.031 58.0165 14.1088H57.92C57.9063 14.1441 57.8856 14.1795 57.8718 14.2148C57.7546 14.229 57.6374 14.2431 57.5272 14.2572V14.3067C57.4582 14.3279 57.3962 14.3421 57.3342 14.3633V14.4127H57.1343C57.1067 14.4693 57.0722 14.5188 57.0378 14.5682H56.893C56.8792 14.6036 56.8586 14.6319 56.8448 14.6672C56.7827 14.6884 56.7138 14.7025 56.6518 14.7167C56.6311 14.7591 56.6173 14.7874 56.6035 14.8227C56.5139 14.8863 56.3002 14.8651 56.2106 14.9217C56.1762 14.9711 56.1417 15.0206 56.1141 15.0701H56.0107V15.1196H55.3284C55.3284 15.1196 55.2939 15.056 55.2801 15.0206H55.032V14.9711C54.9561 14.9146 54.9493 14.9005 54.8321 14.8722C54.8183 14.752 54.7838 14.7096 54.7494 14.6177H54.6942C54.7149 14.5682 54.7907 14.3845 54.7494 14.2643C54.708 14.2502 54.6735 14.236 54.646 14.2219C54.5564 14.0876 54.7011 14.1229 54.4874 14.0664C54.4737 14.0028 54.4599 13.9321 54.4461 13.8685H54.3496C54.2875 13.6635 54.3013 13.8119 54.2048 13.72V13.6706H54.26C54.4323 13.5009 54.6253 13.6706 54.9424 13.5716V13.515H55.1354V13.4656H55.2319V13.4161H55.4249V13.3666H55.5214V13.3171C55.6247 13.2959 55.7212 13.2747 55.8177 13.2606V13.2182C55.9142 13.1828 56.0107 13.1475 56.1141 13.1192V13.0697H56.2106V13.0203H56.3071V12.9637C56.3898 12.9496 56.4726 12.9354 56.5553 12.9142C56.576 12.8789 56.5897 12.8506 56.6035 12.8153H56.7965V12.7658C56.8999 12.7305 56.9964 12.6951 57.086 12.6668V12.6174H57.1894V12.5679C57.341 12.5325 57.4789 12.5043 57.6305 12.4689V12.4194C57.6995 12.3982 57.7615 12.3841 57.8304 12.37V12.3205H58.0717V12.2639C58.2302 12.2286 58.3956 12.2003 58.5611 12.165V12.1155H58.7127V12.066H58.9471V12.0095H59.0918V11.9671C59.2435 11.9459 59.3882 11.9317 59.533 11.9176V11.8681H59.6777V11.8186H59.8156V11.7692C60.0982 11.7409 60.3808 11.6985 60.6565 11.6631V11.6137H60.8564V11.5642H61.1459V11.5147H61.2975V11.4652H61.5939V11.4087C61.8076 11.3945 62.0212 11.3804 62.2349 11.3592V11.3097H62.421V11.2602H62.5175V11.2108H62.5658V11.2602C62.7794 11.239 62.9931 11.2249 63.1999 11.2108V11.1542H63.6411V11.1047H63.9305V11.0553H64.6681V11.0058C64.8955 10.9422 65.7847 11.0058 65.9432 11.0553H66.5291V11.1047C66.8738 11.1259 67.2184 11.1401 67.5561 11.1542V11.2108H67.6526V11.2602H67.756V11.3097H67.8525C67.8525 11.3097 67.887 11.3804 67.9077 11.4087H68.0042V11.4652C68.0731 11.4794 68.1351 11.4935 68.2041 11.5147V11.5642H68.2454V11.5147C68.4867 11.3239 68.1627 11.1895 68.5901 11.1542C68.6452 11.2178 68.5901 11.1754 68.6935 11.2108V11.3097H68.7831V11.5147C68.8658 11.5712 68.852 11.543 68.8865 11.6631H68.9278V11.3663H68.8313C68.8313 11.1966 68.8313 11.0765 68.79 10.9634H68.7417V10.8079H68.7003V10.7089H68.6452V10.5039H68.597C68.5211 10.3555 68.4798 10.3484 68.4522 10.1505H68.3006V10.101C68.2454 10.0445 68.2799 10.101 68.2523 10.0021H68.1558V9.9031C68.0317 9.85363 67.9973 9.84656 67.9559 9.70519H68.0042C68.0318 9.6345 67.9215 9.49314 67.9559 9.35177H68.0042C68.0318 9.26695 68.0249 9.21747 68.0524 9.15385C68.1903 9.08317 68.7141 8.89939 68.983 8.99835V9.04783C69.0795 9.08317 69.176 9.11851 69.2724 9.15385V9.20333H69.3689C69.3896 9.23868 69.4034 9.26695 69.4172 9.30229H69.5137V9.35884C69.6516 9.44366 69.6102 9.30936 69.6653 9.50021L69.7067 9.48607Z" fill="white"/>
<path d="M121.451 8.33358C121.575 8.35478 121.616 8.37599 121.672 8.46081H121.72V8.58804H121.768C121.775 8.64459 121.637 8.74355 121.63 8.75061V8.87078H121.589V9.04042H121.63C121.63 9.04042 121.603 9.09696 121.589 9.12524C121.541 9.15351 121.472 9.2454 121.458 9.2454H121.286V9.28781C121.203 9.30195 121.134 9.31608 121.065 9.33022L121.024 9.28781V9.33022H120.713V9.28781H120.672V9.33022H120.279V9.37263H120.155V9.41504H120.066V9.45038H119.976V9.49279C119.893 9.56348 119.845 9.62709 119.721 9.65537V9.74019H119.631C119.59 9.78967 119.549 9.84621 119.5 9.90276H119.459V10.0229C119.459 10.0229 119.404 10.0512 119.369 10.0653V10.1431C119.328 10.1643 119.28 10.1784 119.238 10.1855C119.176 10.2279 119.19 10.3339 119.149 10.3975C119.121 10.4117 119.094 10.4258 119.066 10.44C119.052 10.4824 119.038 10.5248 119.018 10.5601H118.976C118.963 10.5955 118.949 10.6449 118.935 10.6874H118.845C118.783 10.9347 118.659 10.7863 118.59 10.8923C118.549 10.9489 118.542 11.1609 118.501 11.2245C118.453 11.267 118.384 11.3094 118.329 11.3518C118.246 11.4719 118.37 11.4649 118.329 11.5638C118.301 11.578 118.273 11.5921 118.246 11.5992C118.232 11.6557 118.211 11.7123 118.204 11.7688C118.156 11.783 118.122 11.79 118.073 11.8042C118.06 11.8748 118.046 11.9455 118.032 12.0162H117.991V12.1364C117.991 12.1364 117.936 12.1646 117.901 12.1788V12.2565C117.901 12.2565 117.853 12.2848 117.818 12.2989V12.4686H117.777C117.763 12.511 117.75 12.5534 117.736 12.5887C117.701 12.6029 117.674 12.617 117.646 12.6312V12.8361H117.598V12.8786H117.467C117.426 13.1259 117.343 13.3804 117.246 13.5783C117.329 13.6066 117.288 13.5783 117.329 13.6207C117.405 13.6066 117.419 13.5783 117.419 13.5783H117.812V13.5359H117.943V13.4935H118.073V13.4511C118.191 13.437 118.308 13.4228 118.425 13.4087V13.3733H118.508V13.338C118.597 13.3168 118.687 13.3097 118.77 13.2885C118.79 13.2602 118.797 13.232 118.811 13.2037H118.901V13.1613C119.025 13.133 119.156 13.1118 119.294 13.0835V13.0411H119.383C119.383 13.0411 119.418 12.9846 119.431 12.9563H119.514V12.9139H119.645V12.8786H119.783V12.8361H119.866V12.8008H119.99V12.7584C120.079 12.7301 120.169 12.7089 120.259 12.6736V12.6312H120.341V12.5887H120.424V12.5534H120.514V12.5181H120.603L120.686 12.4332H120.775C120.775 12.4332 120.803 12.3767 120.817 12.3484H120.9V12.306H120.989V12.2636H121.12V12.2283H121.251V12.1858H121.348V12.1434C121.472 12.101 121.603 12.0586 121.74 12.0233V11.9809C121.796 11.9667 121.851 11.9526 121.913 11.9385V11.896H122.051C122.092 11.8395 122.133 11.79 122.175 11.7264H122.395V11.6911H122.478C122.478 11.6911 122.506 11.6345 122.519 11.6062H122.74C122.96 11.5214 123.174 11.373 123.436 11.3164C123.45 11.274 123.464 11.2316 123.484 11.1963H123.526V11.1115H123.56V10.8994C123.608 10.8853 123.65 10.8711 123.705 10.8641C123.705 10.8358 123.726 10.8075 123.739 10.7792H124.001V10.7368C124.146 10.751 124.298 10.7651 124.442 10.7792V10.8217H124.746V10.8641H125.09V10.8994H125.27V10.9418H125.401V10.9842H125.628C125.628 10.9842 125.656 11.0408 125.662 11.069H125.745V11.1115C125.835 11.1397 125.924 11.168 126.014 11.1963V11.5709C125.924 11.6345 125.835 11.7052 125.745 11.7759V11.8112H125.483C125.483 11.8112 125.456 11.8678 125.442 11.896H125.263V11.9385H124.656C124.36 12.0233 124.125 12.1364 123.739 12.1434C123.726 12.1858 123.712 12.2283 123.705 12.2636C123.505 12.2848 123.436 12.3696 123.305 12.4332H123.216V12.4757C123.105 12.5181 122.967 12.4544 122.871 12.5181V12.5534C122.871 12.5534 122.802 12.5817 122.774 12.5887V12.6736H122.733C122.705 12.7089 122.678 12.7584 122.643 12.8008H122.554C122.512 12.8573 122.471 12.9068 122.423 12.9634H122.333C122.306 13.0765 122.264 13.0977 122.202 13.1684H122.154V13.2956C122.154 13.2956 122.099 13.3239 122.071 13.3451C121.975 13.437 121.851 13.5288 121.809 13.6702H121.727C121.699 13.7056 121.672 13.755 121.637 13.7974H121.596V13.9247C121.547 14.0166 121.416 14.1014 121.292 14.1297V14.2074H121.21V14.3276C121.017 14.377 121.051 14.4831 120.858 14.5396C120.824 14.6739 120.72 14.7305 120.638 14.8294H120.596C120.569 14.8718 120.562 14.9142 120.555 14.9496C120.514 14.9637 120.458 14.9779 120.417 14.992V15.0698C120.334 15.1404 120.245 15.2111 120.162 15.2747V15.3171H120.072C120.045 15.4373 120.024 15.4585 119.9 15.4868C119.879 15.6423 119.866 15.6564 119.728 15.6918C119.693 15.8049 119.666 15.7837 119.638 15.8968H119.555C119.48 15.9816 119.411 16.0664 119.335 16.1441H119.287V16.229C119.287 16.229 119.231 16.2572 119.204 16.2714V16.3067H119.073V16.3491C118.99 16.4057 118.97 16.4481 118.852 16.4764C118.832 16.6036 118.811 16.6107 118.687 16.646C118.639 16.8086 118.563 16.7874 118.473 16.8934H118.425V16.9782H118.335V17.063H118.294C118.218 17.1408 118.149 17.2327 118.073 17.3175H117.991C117.943 17.4801 117.887 17.4377 117.77 17.5225V17.5649C117.729 17.5861 117.681 17.6214 117.639 17.6497V17.7699H117.591C117.577 17.8123 117.57 17.8547 117.55 17.8971C117.494 17.9112 117.432 17.9254 117.377 17.9324V18.0597C117.246 18.1586 117.115 18.2576 116.991 18.3566C116.971 18.4343 116.957 18.5191 116.943 18.5969C116.916 18.6464 116.736 18.6605 116.681 18.7241V18.8089C116.681 18.8089 116.619 18.8372 116.598 18.8513V18.9786C116.523 19.021 116.447 19.0634 116.378 19.1058V19.1836C116.33 19.2118 116.288 19.2401 116.24 19.2684C116.226 19.3179 116.212 19.3815 116.199 19.4309C116.144 19.4734 116.081 19.5158 116.019 19.5582C116.013 19.6147 115.992 19.6713 115.978 19.7207C115.93 19.749 115.888 19.7773 115.847 19.8056C115.833 19.8551 115.82 19.9116 115.806 19.9681C115.778 19.9823 115.744 19.9964 115.716 20.0106C115.702 20.053 115.695 20.0883 115.668 20.1307H115.627C115.516 20.3004 115.578 20.4347 115.323 20.5053C115.289 20.6679 115.206 20.6891 115.151 20.7951V20.9153C115.075 20.9719 114.999 21.0284 114.93 21.0849V21.1627C114.93 21.1627 114.875 21.191 114.848 21.2051V21.2899C114.786 21.3253 114.73 21.3748 114.668 21.4101V21.5373C114.551 21.6363 114.434 21.7352 114.317 21.8342V21.9544C114.317 21.9544 114.262 21.9826 114.234 21.9968V22.0745C114.234 22.0745 114.179 22.1028 114.152 22.1169V22.2018H114.103V22.2866H114.055V22.3714H114.014C113.972 22.4279 113.986 22.4421 113.965 22.541C114.117 22.541 114.186 22.5198 114.269 22.4562C114.289 22.4279 114.296 22.3997 114.31 22.3714C114.469 22.4138 114.503 22.3997 114.662 22.329V22.2936H114.841V22.2512H114.923V22.2088H115.103V22.1664H115.185V22.124H115.358V22.0816H115.447V22.0462H115.627V22.0038H115.751V21.9614H115.882V21.919H116.013V21.8766C116.164 21.8625 116.309 21.8483 116.447 21.8413V21.7918H116.536V21.7494H116.757V21.714H117.06V21.6716H117.315V21.6292H117.839V21.5868H118.239V21.5444C118.377 21.5091 118.563 21.5868 118.632 21.5868V21.5444H119.597V21.502H119.686V21.4596H120.162V21.502H120.286V21.5444C120.341 21.5585 120.403 21.5727 120.458 21.5868V21.6292H120.596C120.596 21.6292 120.624 21.6787 120.638 21.714H120.72C120.72 21.714 120.755 21.7706 120.769 21.7918H120.858V21.8413H120.941V21.8766H121.03V21.919H121.113L121.203 22.0038H121.286V22.0462C121.354 22.0887 121.361 22.1028 121.458 22.124V22.2088C121.513 22.2159 121.768 22.2724 121.809 22.2936C121.823 22.3219 121.837 22.3502 121.851 22.3785H121.94V22.4209H122.03C122.03 22.4209 122.058 22.4774 122.071 22.5057H122.154L122.244 22.5905V22.6753C122.361 22.7319 122.478 22.7884 122.588 22.845C122.609 22.9157 122.623 22.9793 122.637 23.05C122.678 23.0782 122.726 23.1065 122.767 23.1348V23.2196C122.809 23.2479 122.864 23.2761 122.898 23.3044C122.912 23.3539 122.926 23.4175 122.94 23.467H122.981C122.981 23.467 123.016 23.5165 123.029 23.5518H123.112C123.153 23.5801 123.147 23.6366 123.202 23.679C123.14 23.7992 123.064 23.8346 123.029 23.9618H122.94C122.94 24.1244 122.919 24.195 122.864 24.294C122.83 24.3011 122.795 24.3223 122.767 24.3364C122.754 24.4 122.74 24.4707 122.726 24.5414C122.678 24.5697 122.637 24.5909 122.595 24.6191C122.616 24.6474 122.63 24.6757 122.643 24.704H122.595V24.8312H122.554V24.9089H122.512V24.9938C122.423 25.0432 122.34 25.0998 122.251 25.1563V25.2836C122.251 25.2836 122.195 25.3118 122.161 25.326V25.4108C122.161 25.4108 122.106 25.4391 122.078 25.4532V25.531C122.037 25.5592 121.995 25.5875 121.947 25.6158V25.7006C121.885 25.7359 121.83 25.7784 121.775 25.8208C121.658 25.9621 121.706 26.0399 121.465 26.0682C121.451 26.1601 121.437 26.2661 121.423 26.358H121.382C121.286 26.4286 121.182 26.4993 121.079 26.57C121.051 26.6619 121.024 26.7609 120.989 26.8598C120.948 26.8881 120.9 26.9164 120.858 26.9446V27.0295C120.81 27.0789 120.748 27.0295 120.679 27.0719C120.624 27.192 120.562 27.3122 120.507 27.4394H120.417C120.362 27.6373 120.176 27.6798 120.114 27.8989H120.024C119.962 28.0473 119.9 28.224 119.721 28.2735V28.4007H119.631C119.617 28.5421 119.576 28.528 119.549 28.6481H119.459C119.404 28.839 119.287 28.7754 119.197 28.8955C119.08 29.051 119.087 29.2065 118.845 29.2631C118.832 29.3055 118.825 29.3479 118.811 29.3903H118.77V29.4751H118.721C118.666 29.5387 118.701 29.5317 118.597 29.5599V29.6448H118.508C118.48 29.7013 118.439 29.7013 118.425 29.7296C118.335 29.8568 118.335 29.9346 118.156 29.977V30.0618H118.073C118.046 30.182 118.025 30.1961 117.894 30.2244V30.3445C117.805 30.394 117.818 30.4152 117.681 30.4294C117.646 30.5424 117.667 30.5212 117.55 30.5495C117.501 30.5919 117.55 30.5637 117.467 30.5919C117.398 30.8181 117.177 30.8323 117.115 31.0867C117.04 31.1009 116.978 31.115 116.895 31.1221V31.1645H116.853V31.327C116.66 31.3765 116.626 31.525 116.419 31.5744V31.6593H116.337C116.323 31.7229 116.309 31.8006 116.295 31.8642C116.247 31.8784 116.206 31.8854 116.157 31.9066V31.9491H116.509C116.626 32.048 117.046 31.9844 117.246 31.9915C117.453 32.0056 117.66 32.0197 117.853 32.0339C117.936 32.0339 118.018 31.9915 118.032 31.9915V32.0339H118.384V31.9915H118.646C118.646 31.9915 118.673 31.9349 118.694 31.9066H118.777V31.9915C119.562 31.9632 120.348 31.9349 121.127 31.9066V31.8642C121.203 31.8642 121.382 31.942 121.527 31.9066V31.8642H121.74V31.9066H121.913V31.8642H122.526V31.8218C122.616 31.8006 122.657 31.8642 122.657 31.8642C122.747 31.8713 122.747 31.8218 122.747 31.8218H122.96V31.8642C122.878 31.8854 122.933 31.8642 122.885 31.9066H123.009V31.9491H122.926C122.857 32.0622 122.816 32.0197 122.795 32.1965C123.036 32.2671 123.016 32.1187 123.009 32.4438C122.96 32.4933 122.995 32.4438 122.967 32.5216C122.836 32.564 122.705 32.6064 122.574 32.6488C122.547 32.6912 122.519 32.7266 122.492 32.769C122.437 32.7831 122.381 32.7973 122.319 32.8114C122.306 32.8397 122.292 32.875 122.278 32.8962H122.188V32.9386H121.975V32.974H121.802V33.0164H121.623V33.0588H121.32V33.1012C121.237 33.1295 121.141 33.1578 121.058 33.179V33.2284H120.886V33.2638H120.755C120.755 33.2638 120.727 33.3203 120.713 33.3486C120.631 33.3627 120.541 33.3769 120.452 33.391C120.438 33.4334 120.424 33.4758 120.41 33.5182C120.265 33.5465 120.114 33.5748 119.976 33.6031V33.6455C119.935 33.6313 119.886 33.6172 119.845 33.6031V33.6455C119.783 33.6667 119.728 33.6737 119.666 33.6879V33.7232H119.404V33.7656H119.273V33.808H119.045V33.8505H118.873V33.8929H118.708V33.9353H118.625V33.9777C118.418 33.9918 118.211 34.006 118.011 34.0201C117.998 34.0484 117.984 34.0696 117.963 34.0979H117.874V34.1332H117.612V34.1827H117.57V34.1332C117.488 34.1191 117.398 34.112 117.308 34.0979V34.1332H117.095V34.1827H117.012V34.2251H116.619C116.619 34.2251 116.592 34.2746 116.53 34.2675V34.2251C116.357 34.2392 116.178 34.2463 116.006 34.2675H115.089V34.2251H114.827V34.1827H114.779V34.2251C114.696 34.2109 114.606 34.1968 114.517 34.1827C114.503 34.1544 114.489 34.1261 114.475 34.0979C114.338 34.0696 114.214 34.0413 114.083 34.0201V33.9777H113.993C113.993 33.9777 113.959 33.9211 113.952 33.8929H113.869V33.8505H113.786L113.697 33.7656H113.614C113.586 33.7232 113.552 33.6879 113.531 33.6384C113.455 33.6243 113.386 33.6101 113.317 33.596V33.5536C113.242 33.497 113.166 33.4405 113.09 33.3839V33.2991C112.863 33.2426 112.863 33.0871 112.745 32.9245C112.697 32.8962 112.656 32.8679 112.608 32.8397C112.594 32.7902 112.58 32.7337 112.566 32.6771C112.532 32.663 112.504 32.6488 112.47 32.6347V32.5499C112.428 32.5216 112.387 32.4933 112.346 32.4651V32.3802H112.297V32.2177H112.256V32.0904H112.215V31.9703H112.173V31.8501H112.132C112.118 31.737 112.104 31.631 112.091 31.5179H112.042V31.1857H112.001V30.9383C111.987 30.8817 111.96 30.9524 111.953 30.8959H112.001C112.015 30.7404 112.029 30.5919 112.042 30.4435H112.091C112.104 30.3799 112.118 30.3304 112.132 30.2809H112.173V30.1961H112.215C112.27 30.1325 112.242 30.1396 112.352 30.1113C112.332 30.0547 112.318 29.9982 112.304 29.9416C112.304 29.9134 112.449 29.7296 112.477 29.6942C112.504 29.6801 112.539 29.666 112.573 29.6518V29.5317C112.573 29.5317 112.628 29.5034 112.656 29.4893V29.362C112.773 29.2631 112.89 29.1712 113.007 29.0722V28.9874C113.062 28.9521 113.118 28.9097 113.18 28.8672V28.7895H113.221C113.255 28.7471 113.283 28.7047 113.311 28.6623C113.455 28.5774 113.455 28.7329 113.524 28.4997C113.71 28.4643 113.828 28.3371 113.869 28.1675C113.986 28.1463 113.945 28.1463 114 28.0827H114.048V27.9978H114.089C114.103 27.9554 114.124 27.913 114.138 27.8706H114.227C114.31 27.7716 114.4 27.6798 114.489 27.5808H114.579V27.5384C114.634 27.4818 114.634 27.5172 114.668 27.4182H114.751C114.813 27.3193 114.91 27.2274 115.013 27.1708V27.0507H115.103C115.234 26.9376 115.365 26.8245 115.496 26.7185V26.6336C115.537 26.6054 115.578 26.5842 115.627 26.5559C115.792 26.3933 116.061 26.0752 116.33 26.0116V25.9339C116.371 25.9056 116.419 25.8773 116.454 25.849V25.7642C116.495 25.7359 116.543 25.7077 116.592 25.6865C116.605 25.6582 116.619 25.6299 116.64 25.6016C116.736 25.531 116.716 25.637 116.771 25.4744C116.895 25.4461 116.916 25.432 116.936 25.3118C116.998 25.2977 117.06 25.2836 117.115 25.2694V25.1846H117.157C117.26 25.0715 117.364 24.9584 117.467 24.8524H117.557L117.639 24.7676V24.6828H117.688C117.77 24.5838 117.839 24.5555 117.86 24.393C118.039 24.3505 117.915 24.3788 117.991 24.2728H118.039C118.073 24.2233 118.073 24.195 118.08 24.1031H118.039C117.88 24.2728 117.922 24.1738 117.688 24.188H117.557C117.529 24.2304 117.494 24.2728 117.467 24.3152H117.288C117.26 24.3505 117.233 24.393 117.205 24.4354C117.074 24.4636 116.943 24.4919 116.812 24.5202C116.798 24.5485 116.778 24.5697 116.771 24.5979H116.64V24.6474H116.55V24.6828H116.461V24.7252H116.378V24.7676H116.288V24.81H116.199V24.8524H116.068C116.04 24.8877 116.013 24.9302 115.978 24.9796H115.847V25.015H115.758C115.758 25.015 115.737 25.0715 115.709 25.1069H115.578C115.537 25.1705 115.496 25.2341 115.454 25.3118H115.234V25.3543H115.151V25.3967H114.93V25.4391H114.848C114.848 25.4391 114.82 25.4956 114.799 25.5168H114.586V25.5592H114.537C114.537 25.5592 114.51 25.5027 114.455 25.5168V25.5592H114.365V25.6016H114.103C114 25.637 113.883 25.7006 113.759 25.7218V25.8066C113.614 25.842 113.552 25.9127 113.414 25.9763V26.0116C113.324 25.9975 113.235 25.9904 113.145 25.9763V25.9339H112.883L112.925 25.8915C112.945 25.7713 112.718 25.6653 112.663 25.6016C112.366 25.6016 112.118 25.5663 111.918 25.6016C111.904 25.7713 111.815 25.8208 111.746 25.9268V26.0045C111.691 26.047 111.629 26.0894 111.574 26.1318V26.2944C111.539 26.3085 111.512 26.3226 111.477 26.3368V26.464C111.477 26.464 111.422 26.4923 111.394 26.5064V26.6336C111.332 26.676 111.277 26.7185 111.215 26.7538C111.16 26.9234 111.098 27.086 111.036 27.2486H110.953C110.953 27.3758 110.919 27.3758 110.871 27.4606H110.829V27.6232H110.781V27.708C110.781 27.708 110.726 27.7363 110.691 27.7434C110.678 27.7999 110.664 27.8635 110.65 27.913C110.622 27.9201 110.595 27.9413 110.567 27.9554V28.0827H110.519V28.1675H110.471C110.388 28.33 110.485 28.4007 110.257 28.4573C110.25 28.6411 110.209 28.6411 110.126 28.7471H110.085V28.9591C110.085 28.9591 110.023 28.9803 109.995 28.9945V29.0793H109.954V29.157H109.912V29.2843H109.864V29.3267H109.912V29.3691L109.864 29.4044C109.775 29.4539 109.768 29.4963 109.651 29.5317V29.8215C109.651 29.8215 109.588 29.8497 109.561 29.8639V29.9487H109.513V30.0335H109.478V30.1961H109.437V30.2809H109.389V30.4859C109.389 30.4859 109.327 30.5142 109.299 30.5283V30.6131C109.299 30.6131 109.237 30.6414 109.216 30.6555V30.9029H109.168V30.9807H109.127V31.1927H109.085V31.2705H109.037V31.5603C109.037 31.5603 108.982 31.5886 108.954 31.5956C108.968 31.6239 108.982 31.6522 108.996 31.6805C108.996 31.7653 108.954 31.7653 108.954 31.7653V32.0127H108.996C109.037 31.9561 109.078 31.9067 109.127 31.8501H109.168V31.7653C109.168 31.7653 109.23 31.737 109.258 31.7299V31.6451C109.258 31.6451 109.32 31.6168 109.34 31.6027V31.4755C109.34 31.4755 109.395 31.4472 109.43 31.4401V31.3553H109.471V31.2705H109.506V31.1503C109.506 31.1503 109.568 31.1221 109.595 31.1079V31.0231H109.644V30.9453H109.685V30.8181H109.726V30.7333H109.775V30.6131H109.809C109.83 30.5425 109.844 30.4718 109.857 30.4082C109.892 30.3869 109.919 30.3799 109.947 30.3587V30.0759H110.03V29.9911C110.078 30.0053 110.119 30.0194 110.167 30.0335C110.181 30.1183 110.195 30.1961 110.209 30.2809H110.167V30.3163H110.209C110.223 30.3728 110.236 30.4294 110.25 30.4788H110.34C110.36 30.6697 110.464 30.6838 110.512 30.8535C110.436 30.8959 110.457 30.8747 110.429 30.9736C110.526 30.9878 110.533 30.9948 110.595 31.016C110.588 31.0584 110.567 31.1009 110.553 31.1433H110.595V31.3482C110.588 31.3836 110.457 31.3765 110.512 31.5179C110.547 31.532 110.567 31.5462 110.595 31.5532V32.0056H110.553V32.1258H110.505V32.4226C110.505 32.4226 110.45 32.4438 110.423 32.458V32.5781C110.381 32.5923 110.36 32.6064 110.333 32.6206V32.663H110.374V32.9528H110.333V33.1648H110.292V33.2496H110.243V33.4546C110.243 33.4546 110.216 33.4546 110.202 33.5394C110.161 33.5465 110.112 33.5606 110.071 33.5819C110.064 33.6879 110.064 33.7232 110.023 33.7868H109.981V33.9494C109.981 33.9494 109.926 33.9777 109.899 33.9918C109.885 34.0342 109.871 34.0696 109.85 34.112H109.802C109.747 34.1897 109.74 34.1968 109.719 34.324C109.664 34.3382 109.478 34.4159 109.464 34.4442C109.382 34.5361 109.506 34.5149 109.327 34.5714C109.306 34.6633 109.285 34.7199 109.244 34.7764H109.202C109.092 34.939 109.202 35.045 108.941 35.1086C108.913 35.1298 108.644 35.2076 108.589 35.1864V35.144C108.52 35.1016 108.451 35.0521 108.334 35.0591C108.334 35.0591 108.313 35.1228 108.244 35.1016V35.0591C108.203 35.0309 108.155 35.0026 108.113 34.9743V34.8966C108.113 34.8966 108.051 34.8612 108.031 34.8542V34.7693C108.031 34.7693 107.969 34.7411 107.934 34.7269V34.6492C107.872 34.5785 107.721 34.6138 107.631 34.5644V34.522C107.562 34.4654 107.493 34.4159 107.417 34.3523V34.2675C107.335 34.2039 107.245 34.1332 107.162 34.0625V33.9848H107.114V33.8999C107.114 33.8999 107.059 33.8717 107.024 33.8575V33.7303H106.983C106.997 33.3769 107.017 33.0164 107.024 32.6559C106.997 32.6418 106.962 32.6276 106.942 32.6135C106.969 32.5711 106.997 32.5287 107.024 32.4863H106.983C106.997 32.4438 107.017 32.4085 107.024 32.3661H106.983C106.997 32.147 107.017 31.9279 107.024 31.7087H107.066V31.2917H107.107V31.2069H107.155C107.169 30.9595 107.183 30.7121 107.197 30.4647C107.231 30.4506 107.252 30.4364 107.286 30.4294C107.3 30.3445 107.314 30.2668 107.328 30.182H107.369V30.0971H107.41C107.397 29.984 107.383 29.878 107.369 29.7649H107.41V29.6801H107.459V29.5529H107.5V29.3055C107.5 29.3055 107.562 29.2843 107.59 29.2631V29.1783C107.59 29.1783 107.645 29.15 107.672 29.1358V28.9379H107.721C107.734 28.8531 107.755 28.7683 107.769 28.6835C107.769 28.6623 107.838 28.6623 107.852 28.6057V28.5633H107.81V28.5209H107.893V28.4785C107.893 28.4785 107.955 28.4502 107.989 28.4361V28.3583L108.072 28.2735V28.1957H108.113V28.1109C108.155 28.0827 108.203 28.0544 108.244 28.0332V27.8635C108.244 27.8635 108.3 27.8353 108.334 27.8211V27.7363H108.375V27.6586H108.417V27.5737H108.465V27.4889L108.555 27.4041V27.3263C108.555 27.3263 108.617 27.2981 108.637 27.2839V27.1991C108.637 27.1991 108.692 27.1779 108.727 27.1567V27.0789C108.727 27.0789 108.782 27.0507 108.81 27.0365C108.83 26.9658 108.844 26.8952 108.858 26.8245C108.885 26.8103 108.913 26.7962 108.947 26.7821V26.7467C108.947 26.7467 109.003 26.7185 109.03 26.7043V26.6195C109.078 26.5912 109.12 26.57 109.161 26.5417V26.4569C109.161 26.4569 109.223 26.4286 109.251 26.4216V26.3368C109.251 26.3368 109.313 26.3085 109.333 26.2944V26.2519C109.444 26.1671 109.513 26.3509 109.595 26.0894C109.506 26.0611 109.561 26.0894 109.506 26.047C109.644 25.9551 109.602 25.842 109.685 25.7147C109.713 25.7006 109.74 25.6865 109.775 25.6794V25.5946C109.83 25.5522 109.892 25.5098 109.947 25.4673V25.3472C109.947 25.3472 110.002 25.3189 110.03 25.3048V25.22C110.092 25.1775 110.154 25.1351 110.209 25.0998V25.0079C110.25 24.9867 110.298 24.9514 110.34 24.9231V24.8453C110.381 24.8171 110.429 24.7888 110.464 24.7605V24.6757C110.498 24.6616 110.533 24.6474 110.553 24.6403C110.622 24.5626 110.698 24.4566 110.726 24.3435H110.815C110.829 24.3081 110.843 24.2657 110.857 24.2233H110.905C110.919 24.1809 110.933 24.1385 110.946 24.0961C110.981 24.0819 111.008 24.0678 111.029 24.0607V23.9689C111.077 23.9476 111.119 23.9194 111.167 23.884C111.194 23.7992 111.222 23.7215 111.25 23.6437C111.291 23.6154 111.332 23.5872 111.381 23.5589V23.4741C111.422 23.4458 111.463 23.4246 111.505 23.3963V23.3115C111.622 23.2125 111.739 23.1206 111.856 23.0217V22.9369C111.898 22.9086 111.939 22.8803 111.987 22.852V22.7672C112.029 22.739 112.077 22.7177 112.118 22.6824V22.6047C112.118 22.6047 112.18 22.5764 112.201 22.5622V22.4774H112.242C112.318 22.3714 112.201 22.3997 112.373 22.3573C112.435 22.1452 112.566 22.23 112.635 22.1099V21.9473C112.738 21.8625 112.835 21.7777 112.945 21.6999C113.007 21.6292 113.014 21.4878 113.069 21.4101C113.159 21.3394 113.249 21.2758 113.338 21.2051V21.1274C113.338 21.1274 113.393 21.0991 113.421 21.0849C113.504 20.9719 113.38 21.0072 113.559 20.9577C113.573 20.9153 113.586 20.8729 113.6 20.8376H113.641V20.7527H113.683V20.6679C113.731 20.6467 113.772 20.6184 113.814 20.5902C113.834 20.5195 113.848 20.4488 113.862 20.3781C113.945 20.3145 114.041 20.2438 114.124 20.1731C114.138 20.1166 114.152 20.06 114.172 20.0035C114.214 19.9752 114.255 19.9469 114.296 19.9187V19.8338C114.296 19.8338 114.358 19.8056 114.386 19.7985V19.7137C114.386 19.7137 114.448 19.6854 114.475 19.6783C114.544 19.6006 114.613 19.4946 114.655 19.3885H114.737C114.765 19.2754 114.799 19.2189 114.875 19.1411H114.917V19.0634C114.958 19.0351 114.999 19.0068 115.054 18.9786C115.068 18.9291 115.082 18.8725 115.096 18.816C115.123 18.8019 115.151 18.7877 115.185 18.7736V18.6888C115.241 18.6534 115.296 18.6039 115.358 18.5686V18.4838C115.358 18.4838 115.413 18.4555 115.447 18.4414V18.3636H115.489C115.509 18.3212 115.516 18.2788 115.53 18.2364H115.613C115.661 18.0455 115.826 18.0031 115.875 17.8194H115.957C115.992 17.7063 116.019 17.7275 116.047 17.6144H116.144C116.164 17.5083 116.33 17.268 116.405 17.2044C116.44 17.1761 116.488 17.1479 116.536 17.1196C116.55 17.0772 116.564 17.0348 116.578 16.9924C116.633 16.9499 116.688 16.9075 116.757 16.8722C116.853 16.7308 116.702 16.6884 116.922 16.6248V16.54H117.019V16.4552H117.102C117.129 16.4057 117.171 16.3915 117.184 16.3703V16.2926C117.184 16.2926 117.239 16.2643 117.267 16.2502V16.1654C117.267 16.1654 117.329 16.1371 117.35 16.1229C117.453 16.0169 117.57 15.9109 117.612 15.7483H117.701C117.756 15.5504 117.929 15.5433 117.963 15.2959C117.687 15.3101 117.412 15.3242 117.129 15.3384V15.3808H117.005V15.4232H116.957C116.957 15.4232 116.929 15.3666 116.909 15.3384H116.743V15.2959C116.667 15.2535 116.667 15.2394 116.564 15.2111V15.1334C116.164 15.1334 116.261 14.9496 115.992 14.886C115.964 14.8012 115.937 14.7234 115.902 14.6315C115.861 14.6032 115.82 14.575 115.771 14.5538V14.4689C115.771 14.4689 115.716 14.4407 115.682 14.4265C115.661 14.2357 115.627 14.0448 115.599 13.8469C115.571 13.8328 115.544 13.8186 115.516 13.8045V13.4299H115.475C115.496 13.2108 115.502 12.9916 115.516 12.7725H115.558V12.6453H115.606V12.4403H115.654C115.668 12.3131 115.682 12.1929 115.695 12.0657C115.73 12.0515 115.758 12.0374 115.785 12.0233V11.7759C115.82 11.7547 115.847 11.7476 115.875 11.7264C115.888 11.6062 115.902 11.479 115.916 11.3588H115.957C115.978 11.3023 115.992 11.2458 116.006 11.1963H116.047V11.0337H116.095V10.9489H116.144C116.171 10.8146 116.199 10.6732 116.226 10.5389H116.268V10.4541H116.316C116.343 10.3339 116.371 10.2067 116.405 10.0865H116.44V9.99465H116.481V9.87449H116.53C116.543 9.81794 116.557 9.76139 116.571 9.70485H116.619V9.62709H116.66V9.49986H116.702C116.716 9.45038 116.729 9.39384 116.75 9.33729H116.791C116.812 9.28074 116.819 9.2242 116.84 9.17472C116.86 9.16058 116.895 9.14644 116.916 9.13231V9.01214C116.916 9.01214 116.978 8.9768 117.012 8.96973V8.84957C117.012 8.84957 117.06 8.8213 117.095 8.80716V8.67993H117.136V8.60218H117.184V8.51736C117.184 8.51736 117.239 8.48908 117.267 8.47495C117.35 8.29824 117.219 8.06498 117.184 7.98723C117.301 7.95189 117.26 7.96602 117.315 7.90241H117.357V7.81759C117.405 7.78931 117.446 7.76811 117.495 7.73277C117.508 7.69036 117.522 7.65501 117.543 7.6126H117.625C117.625 7.6126 117.653 7.55606 117.674 7.52778H117.763V7.49244C117.818 7.4783 117.88 7.46417 117.936 7.45003V7.40762H118.073C118.115 7.35107 118.163 7.29453 118.204 7.23798H118.294V7.20264H118.859C118.859 7.20264 118.887 7.25212 118.894 7.28039H118.983C119.011 7.3228 119.038 7.36521 119.066 7.40762C119.114 7.39348 119.156 7.37935 119.204 7.36521V7.40762H119.294V7.45003H119.376C119.376 7.45003 119.411 7.49951 119.418 7.53485H119.549V7.57726H119.68V7.61967H119.859V7.66208H120.031V7.69742H120.3V7.73983C120.348 7.75397 120.41 7.76811 120.472 7.78224V7.82465H120.61C120.61 7.82465 120.631 7.8812 120.651 7.90948H120.948C120.948 7.90948 120.982 7.96602 120.989 7.9943C121.03 8.00843 121.079 8.02257 121.127 8.02964V8.07205H121.258V8.11446H121.341V8.15687C121.465 8.22755 121.423 8.12153 121.472 8.2841C121.527 8.33358 121.492 8.2841 121.513 8.36185L121.451 8.33358Z" fill="white"/>
<path d="M113.552 12.1012V11.981C113.51 11.9527 113.469 11.9244 113.421 11.8962C113.338 11.7901 113.462 11.8184 113.29 11.776C113.269 11.7195 113.255 11.6629 113.248 11.6064C113.124 11.5781 113.104 11.564 113.069 11.4438C112.945 11.4014 112.807 11.359 112.683 11.3166V11.2741C112.607 11.26 112.532 11.2459 112.47 11.2317C112.449 11.2035 112.435 11.1752 112.421 11.154H112.297V11.1116H112.118V11.0692H111.946V11.0268H111.601C111.47 10.9843 111.291 10.843 111.07 10.8995V10.9419H110.898V10.9843C110.822 10.9914 110.753 11.0126 110.677 11.0268V11.0692C110.615 11.0833 110.56 11.0974 110.505 11.1116V11.154H110.381V11.1964H110.291V11.2317C110.202 11.2459 110.119 11.26 110.03 11.2741V11.3166H109.94V11.359H109.809V11.4014H109.726V11.4438C109.65 11.4438 109.582 11.4721 109.506 11.4791V11.5215H109.382V11.564C109.251 11.5922 109.113 11.6134 108.982 11.6417C108.968 11.6629 108.954 11.6983 108.94 11.7195H108.851V11.7689C108.679 11.8255 108.41 11.7477 108.286 11.8467H108.065C108.086 11.8113 108.148 11.776 108.155 11.7689C108.162 11.6983 108.182 11.6276 108.196 11.564H108.244V11.4367H108.286V11.3519H108.327V11.2247C108.327 11.2247 108.389 11.1964 108.417 11.1893V11.0268C108.417 11.0268 108.472 10.9914 108.506 10.9843V10.8995C108.506 10.8995 108.568 10.8713 108.589 10.8642V10.7794H108.637C108.679 10.6875 108.679 10.3623 108.637 10.327V10.2846C108.685 10.2775 108.727 10.2634 108.768 10.2422C108.823 10.1785 108.768 10.1149 108.816 10.0372C108.858 10.0089 108.906 9.98063 108.947 9.95236C108.927 9.87461 108.913 9.78979 108.906 9.70497H108.947C108.961 9.64842 108.975 9.59894 108.989 9.5424H109.037V9.49998H108.989C109.003 9.44344 109.051 9.43637 109.037 9.33741C109.037 9.33741 108.961 9.31621 108.989 9.25259C108.989 9.25259 109.065 9.19604 109.078 9.16777H108.989V9.04054H109.078C109.078 8.83556 109.106 8.76487 109.168 8.63057H109.209C109.202 8.56696 109.168 8.55989 109.168 8.46093H109.251C109.237 8.39025 109.223 8.32663 109.209 8.25595C109.237 8.24181 109.271 8.22768 109.292 8.21354C109.347 8.08631 109.313 7.98028 109.292 7.88132H109.43V7.63393H109.464C109.471 7.57738 109.382 7.55618 109.43 7.47136C109.457 7.45722 109.485 7.44308 109.513 7.42895V7.30172H109.554C109.554 7.30172 109.526 7.25224 109.513 7.2169C109.554 7.18862 109.602 7.16035 109.644 7.13914C109.623 7.0826 109.616 7.02605 109.602 6.9695H109.644C109.671 6.82107 109.699 6.66556 109.733 6.51713C109.699 6.50299 109.671 6.48885 109.644 6.47472V6.43231H109.768C109.802 6.30507 109.857 6.23439 109.816 6.1425V6.10009C109.864 6.07182 109.905 6.05061 109.947 6.02234V5.8527H109.988V5.76788H110.036V5.6053H110.078C110.112 5.54876 110.112 5.53462 110.126 5.43566H110.209V5.27309L110.167 5.23068C110.209 5.20241 110.257 5.17413 110.298 5.15293C110.312 5.08224 110.326 5.01156 110.34 4.94088C110.367 4.92674 110.402 4.9126 110.422 4.89846C110.443 4.84899 110.457 4.79244 110.471 4.73589H110.519V4.65107C110.519 4.65107 110.574 4.6228 110.602 4.60866V4.48143H110.643V4.36127C110.691 4.24817 110.76 4.22697 110.774 4.07146C110.864 4.04319 110.808 4.07146 110.864 4.02905H110.905V3.90182H110.946V3.85941H110.905V3.817H110.988C110.995 3.64029 111.015 3.59788 111.077 3.48479H111.125V3.36463H111.167V3.2798H111.208V3.20205C111.25 3.16671 111.291 3.13844 111.339 3.11016C111.367 3.02534 111.394 2.94759 111.422 2.86277C111.449 2.84863 111.477 2.8345 111.518 2.82036V2.7002C111.518 2.7002 111.574 2.67192 111.608 2.65779V2.57297H111.642V2.48814C111.691 2.46694 111.732 2.43867 111.773 2.41039V2.32557C111.773 2.32557 111.835 2.2973 111.856 2.29023C111.877 2.23368 111.891 2.17714 111.897 2.12059H111.946V1.95802C111.946 1.95802 112.001 1.92974 112.035 1.91561V1.8732H111.987C111.973 1.70355 111.987 1.58339 112.077 1.49857V1.45616C112.001 1.44202 111.932 1.42789 111.856 1.41375C111.842 1.37134 111.835 1.336 111.815 1.29359H111.767V1.20877H111.725V0.918963H111.636C111.636 0.827074 111.636 0.805869 111.601 0.75639H111.56V0.71398C111.525 0.664501 111.56 0.71398 111.511 0.67157V0.629159H111.25C111.222 0.586749 111.188 0.544339 111.16 0.508997H111.029V0.466586C110.884 0.424176 110.74 0.381766 110.588 0.339355V0.466586H110.54C110.498 0.636228 110.36 0.67157 110.285 0.798801H110.195C110.14 1.00378 109.947 1.12395 109.843 1.29359H109.754C109.706 1.47737 109.588 1.44202 109.54 1.6258H109.451V1.71062H109.368C109.326 1.81665 109.306 1.80251 109.278 1.91561H109.196C109.168 2.0287 109.127 2.08525 109.065 2.163H109.023V2.24782C108.975 2.27609 108.94 2.2973 108.892 2.32557V2.41039C108.837 2.4528 108.775 2.48814 108.72 2.53056C108.699 2.57297 108.692 2.61538 108.679 2.65779C108.692 2.68606 108.699 2.71433 108.72 2.74261H108.63V2.78502C108.541 2.86984 108.561 2.78502 108.541 2.94759H108.458V3.03241H108.368C108.355 3.15964 108.341 3.15964 108.286 3.23739H108.244V3.35756C108.244 3.35756 108.182 3.38583 108.155 3.39997V3.47772C108.155 3.47772 108.1 3.50599 108.065 3.52013V3.64736H108.024C107.982 3.70391 107.989 3.71804 107.982 3.80993H107.886C107.879 3.95837 107.865 3.97251 107.803 4.05733H107.762V4.18456C107.762 4.18456 107.7 4.20576 107.672 4.22697V4.31179H107.624V4.39661H107.583V4.51677H107.548V4.60159H107.5V4.76417H107.459V4.88433H107.417C107.396 4.92674 107.39 4.96915 107.369 5.01156C107.341 5.0257 107.307 5.03983 107.286 5.05397V5.29429H107.245C107.231 5.35791 107.21 5.40739 107.197 5.46394H107.148C107.169 5.50635 107.183 5.54876 107.197 5.59117H107.148V5.71133H107.107V5.79615H107.059V5.95872H107.017C107.004 6.02941 106.99 6.09302 106.976 6.16371H106.935V6.24853H106.893C106.9 6.29801 106.942 6.47472 106.893 6.58074C106.866 6.58781 106.838 6.60901 106.811 6.61608V6.82107H106.762V6.99071H106.721V7.11794H106.673C106.666 7.2381 106.652 7.36533 106.631 7.48549H106.59V7.57032C106.59 7.57032 106.528 7.59859 106.5 7.61273L106.549 7.64807C106.528 7.7753 106.521 7.90253 106.5 8.02269H106.452V8.34784H106.411V8.43266H106.369V8.55989H106.328C106.342 8.63764 106.356 8.72246 106.369 8.80728H106.328V8.92745H106.28V9.01227H106.239V9.17484H106.197V9.25966H106.156L106.197 9.30207C106.183 9.38689 106.176 9.46464 106.156 9.54946H106.114V9.79686C106.114 9.79686 106.046 9.79686 106.025 9.91702H105.935V10.0018H106.025C106.004 10.0443 105.99 10.0867 105.977 10.122H105.935V10.4966H105.887V10.6592H105.846V10.7016C105.846 10.7016 105.908 10.7299 105.935 10.744V10.8642H105.977V10.9066H105.935V10.949C105.935 11.0056 105.97 10.9278 105.977 10.9914H105.935V11.0338H105.977C106.052 11.2105 106.087 11.2954 106.239 11.4084V11.4438H106.369C106.369 11.4438 106.397 11.5003 106.411 11.5286H106.5C106.5 11.5286 106.528 11.5781 106.549 11.6064H106.631C106.666 11.6488 106.693 11.6841 106.721 11.7336C106.797 11.7477 106.866 11.7548 106.935 11.7689V11.8113C106.997 11.8538 107.052 11.8962 107.114 11.9386V12.0234C106.921 12.0517 106.728 12.0799 106.549 12.1082V12.1506H106.459V12.193H106.335V12.2284C106.28 12.2425 106.218 12.2567 106.163 12.2708V12.3132C106.08 12.3273 105.99 12.3415 105.894 12.3556C105.88 12.3839 105.866 12.4122 105.853 12.4404C105.77 12.4828 105.591 12.4758 105.508 12.5253C105.494 12.5535 105.48 12.5747 105.46 12.603C105.322 12.6383 105.177 12.6596 105.025 12.6878V12.7302H104.894V12.7726H104.763V12.808H104.632V12.8504H104.55V12.8857H104.116V12.8504C104.047 12.8575 103.964 12.8716 103.902 12.8857V13.0554H103.854C103.84 13.0907 103.826 13.1331 103.812 13.1755C103.84 13.1897 103.867 13.2038 103.902 13.218V13.3805C103.902 13.3805 103.95 13.4088 103.991 13.4229C103.964 13.5572 103.957 13.6986 103.936 13.8329H103.991V13.9177C103.991 13.9177 104.047 13.946 104.074 13.9601V14.0379H104.122C104.171 14.1015 104.184 14.1086 104.212 14.2075C104.267 14.2217 104.322 14.2358 104.384 14.2429V14.2782C104.543 14.3489 104.543 14.2358 104.598 14.4479C104.75 14.4832 104.715 14.5327 104.86 14.568V14.6528C105.032 14.6952 105.081 14.7942 105.294 14.8154V14.8578C105.425 14.8225 105.556 14.8013 105.687 14.773V14.7306C105.784 14.667 105.818 14.6034 105.949 14.568V14.4903H106.039V14.4054C106.335 14.3418 106.528 14.1368 106.776 14.0308H106.907V13.9955H107.038V13.9531C107.114 13.9389 107.19 13.9248 107.259 13.9107V13.8753C107.376 13.847 107.355 13.8612 107.383 13.7481H107.645C107.645 13.7481 107.679 13.6915 107.693 13.6633H107.782V13.6279C107.92 13.5996 108.072 13.5714 108.217 13.5431V13.5007H108.306V13.4583H108.437C108.437 13.4583 108.465 13.4017 108.486 13.3735C108.589 13.3664 108.692 13.3523 108.789 13.3381V13.3028C108.851 13.2604 108.872 13.2674 108.968 13.2533V13.4229H108.878V13.5007H108.789C108.761 13.6279 108.727 13.5996 108.706 13.7481H108.617C108.589 13.8612 108.561 13.84 108.534 13.9531H108.444C108.41 14.0662 108.382 14.045 108.355 14.1581H108.272V14.2429H108.182C108.141 14.3772 107.865 14.674 107.748 14.7377V14.8649H107.652C107.61 15.0133 107.521 15.0416 107.479 15.19H107.39C107.362 15.289 107.355 15.2961 107.307 15.3597H107.266V15.4445H107.217V15.5223H107.169C107.155 15.5647 107.141 15.6071 107.128 15.6495C106.88 15.7202 107.114 15.7131 106.99 15.8545C106.928 15.8969 106.873 15.9393 106.818 15.9746C106.804 16.0312 106.783 16.0877 106.769 16.1443C106.7 16.2008 106.625 16.2574 106.556 16.3068C106.535 16.3634 106.528 16.4199 106.507 16.4765C106.48 16.4906 106.452 16.5048 106.418 16.5118V16.6391C106.418 16.6391 106.363 16.6815 106.335 16.7239H106.245V16.8864H106.163C106.128 17.0066 106.052 17.1692 105.99 17.2611C105.928 17.2964 105.873 17.3459 105.818 17.3883V17.4661C105.784 17.4802 105.756 17.4943 105.728 17.5085V17.6286C105.728 17.6286 105.673 17.6569 105.646 17.664V17.7488C105.646 17.7488 105.591 17.7771 105.556 17.7912V17.869C105.556 17.869 105.501 17.8972 105.467 17.9184C105.439 17.9962 105.411 18.081 105.384 18.1658C105.349 18.18 105.322 18.1941 105.294 18.2082V18.3355C105.294 18.3355 105.239 18.3567 105.211 18.3779V18.4627C105.17 18.491 105.129 18.5192 105.081 18.5405V18.6253C105.081 18.6253 105.025 18.6535 104.991 18.6677V18.7525L104.908 18.8303V18.9151H104.867V18.9999C104.867 18.9999 104.812 19.0282 104.777 19.0423V19.1695H104.736V19.2473H104.695V19.3321C104.695 19.3321 104.632 19.3604 104.598 19.3745V19.5371C104.598 19.5371 104.543 19.5654 104.515 19.5795V19.7067C104.515 19.7067 104.46 19.735 104.426 19.7562V19.9188C104.426 19.9188 104.377 19.9471 104.336 19.9612V20.1308C104.336 20.1308 104.288 20.1591 104.253 20.1662C104.226 20.357 104.191 20.5549 104.164 20.7458H104.074C104.095 20.8377 104.102 20.9366 104.122 21.0356C104.095 21.0497 104.06 21.0639 104.033 21.078V21.1558H103.998V21.2759H103.943V21.3254C103.943 21.3254 104.012 21.3749 103.998 21.4456H103.943V21.5304H103.909C103.881 21.5869 104.095 22.2584 104.122 22.315C104.164 22.3432 104.212 22.3715 104.253 22.3998V22.5694C104.253 22.5694 104.309 22.5977 104.336 22.6048V22.6896C104.384 22.7179 104.426 22.7391 104.467 22.7673V22.8027H104.557C104.598 22.8592 104.639 22.9158 104.695 22.9723H104.777L104.867 23.0571H104.956V23.0996H105.039C105.039 23.0996 105.067 23.149 105.087 23.1773C105.191 23.1915 105.294 23.2056 105.398 23.2197V23.2621C105.473 23.2975 105.66 23.3399 105.79 23.3045V23.2621H105.963V23.2197H106.183V23.1773H106.266V23.1349H106.528C106.528 23.1349 106.556 23.0784 106.576 23.0501H106.79C106.79 23.0501 106.824 22.9935 106.838 22.9653H106.921C106.962 22.8239 107.017 22.8098 107.141 22.7603H107.272C107.272 22.7603 107.3 22.7037 107.314 22.6825H107.396C107.396 22.6825 107.424 22.626 107.445 22.5977C107.527 22.5341 107.617 22.4634 107.707 22.3927V22.3079L107.796 22.2231H107.879C107.962 22.1383 108.031 22.0534 108.1 21.9757H108.189V21.9333C108.286 21.8767 108.251 21.9545 108.32 21.8485H108.403C108.437 21.7283 108.465 21.7071 108.534 21.6435V21.6011C108.575 21.5869 108.617 21.5728 108.665 21.5587V21.4738C108.734 21.4244 108.81 21.3678 108.885 21.3113C108.899 21.283 108.913 21.2547 108.934 21.2264H109.016V21.184C109.085 21.1275 109.071 21.1628 109.106 21.0639H109.196C109.23 20.9366 109.244 20.9225 109.368 20.8942C109.382 20.7458 109.395 20.7175 109.54 20.6892V20.562C109.595 20.5267 109.657 20.4772 109.719 20.4418C109.781 20.3782 109.837 20.3075 109.892 20.2369C109.919 20.2227 109.954 20.2086 109.974 20.1945C110.036 20.1167 109.954 20.1308 110.064 20.0672V19.9471H110.154C110.202 19.7421 110.36 19.6148 110.581 19.5724C110.602 19.4169 110.615 19.3957 110.76 19.3675C110.76 19.1978 110.746 19.1059 110.85 19.0352C110.795 18.9716 110.698 18.9292 110.581 18.908V18.7808C110.512 18.7666 110.436 18.7525 110.367 18.7384V18.696H110.154V18.6535H110.064V18.6111C109.974 18.597 109.885 18.5829 109.795 18.5758V18.5263H109.761C109.775 18.491 109.781 18.4486 109.795 18.4062C109.761 18.392 109.712 18.3779 109.671 18.3637V18.3213H109.582V18.286H109.54V18.3213H109.237V18.3637C109.196 18.3496 109.147 18.3355 109.106 18.3213C109.12 18.1517 109.092 18.1941 109.196 18.1163V18.0739H109.326C109.34 18.0315 109.354 17.9891 109.368 17.9467L109.457 17.8619H109.54V17.8265C109.63 17.7559 109.678 17.7488 109.719 17.6216C109.94 17.565 109.954 17.4095 110.071 17.2469C110.092 17.2187 110.126 17.2187 110.161 17.1621H110.243C110.285 17.0278 110.381 16.9713 110.457 16.8723H110.505V16.7946C110.505 16.7946 110.56 16.7663 110.588 16.7592V16.6744C110.588 16.6744 110.65 16.6461 110.677 16.632C110.74 16.5613 110.795 16.4977 110.857 16.427C110.967 16.328 111.063 16.3493 111.119 16.1796H111.208V16.0948C111.443 16.0382 111.56 15.8121 111.649 15.6H111.732V15.5152C111.863 15.4869 111.966 15.4021 111.994 15.2678H112.084C112.111 15.1476 112.132 15.1335 112.256 15.0981V15.0133C112.394 14.9851 112.428 14.9214 112.47 14.8083H112.566C112.594 14.6882 112.614 14.7094 112.69 14.6458V14.6034C112.738 14.5963 112.78 14.5751 112.821 14.561C112.89 14.4691 112.773 14.4832 112.904 14.3984V14.2711C112.828 14.3136 112.759 14.356 112.683 14.3984C112.669 14.4267 112.656 14.4549 112.642 14.4832H112.559C112.559 14.4832 112.525 14.5327 112.518 14.561C112.47 14.5751 112.428 14.5963 112.38 14.6034V14.6882C112.283 14.7094 112.27 14.7235 112.201 14.773V14.8154C112.159 14.8225 112.118 14.8437 112.07 14.8578C112.056 14.879 112.042 14.9073 112.022 14.9356H111.932C111.932 14.9356 111.911 14.9921 111.891 15.0133H111.808C111.767 15.0769 111.725 15.1264 111.677 15.1759H111.594C111.594 15.1759 111.567 15.2324 111.546 15.2607H111.449C111.449 15.2607 111.429 15.3173 111.408 15.3455C111.346 15.3597 111.291 15.3738 111.236 15.3809C111.208 15.4304 111.174 15.4657 111.153 15.5081C111.091 15.5293 111.029 15.5364 110.974 15.5505C110.946 15.5929 110.919 15.6283 110.891 15.6707C110.753 15.7131 110.622 15.7555 110.491 15.7979V15.7131H110.574V15.6283C110.815 15.5717 110.671 15.5647 110.753 15.4233H110.802C110.815 15.3738 110.829 15.3385 110.843 15.2961H110.926V15.2112H111.008C111.043 15.0699 111.077 14.9921 111.229 14.9709V14.8437H111.27V14.8013H111.401C111.443 14.6316 111.546 14.5963 111.622 14.4691H111.704C111.732 14.356 111.767 14.3772 111.787 14.257C112.008 14.2075 111.925 14.1015 112.049 14.0096H112.132C112.132 14.0096 112.159 13.9601 112.173 13.9319H112.215V13.7622C112.27 13.7198 112.332 13.6774 112.387 13.635C112.532 13.4724 112.683 13.3098 112.821 13.1402H112.911C112.938 13.0271 112.966 13.0483 113 12.9352C113.124 12.8645 113.262 12.7939 113.386 12.7302V12.603H113.435V12.5606H113.524C113.552 12.3415 113.662 12.2779 113.566 12.0234L113.552 12.1012ZM108.106 20.0036C108.038 20.0177 107.975 20.0389 107.913 20.0531C107.851 20.1379 107.789 20.2157 107.727 20.2934C107.679 20.3358 107.3 20.5196 107.21 20.4772V20.4136H107.155C107.135 20.5196 107.107 20.6186 107.093 20.7175C107.024 20.7246 106.962 20.7599 106.893 20.767V20.8306H106.769C106.749 20.873 106.735 20.9154 106.707 20.9508H106.514V21.0144C106.425 21.0497 106.342 21.0427 106.266 21.0709V20.9508H106.39C106.411 20.8872 106.432 20.8306 106.452 20.767H106.521V20.6539C106.569 20.6327 106.604 20.6186 106.652 20.5903C106.693 20.456 106.742 20.3146 106.776 20.1662C106.838 20.1308 106.9 20.0884 106.969 20.046V19.8128C107.017 19.7916 107.052 19.7704 107.1 19.7562V19.629H107.162C107.197 19.5724 107.245 19.5159 107.286 19.4523C107.417 19.4169 107.341 19.4523 107.417 19.3887C107.741 19.424 107.879 19.6219 108.12 19.7491V19.9895L108.106 20.0036Z" fill="white"/>
</g>
<defs>
<clipPath id="clip0_191_14924">
<rect width="126" height="40" fill="white"/>
</clipPath>
</defs>
</svg>
