<svg width="86" height="86" viewBox="0 0 86 86" fill="none" xmlns="http://www.w3.org/2000/svg">
<g filter="url(#filter0_d_105_4781)">
<rect x="15" y="5" width="56" height="56" rx="16" fill="#2D367E"/>
<g clip-path="url(#clip0_105_4781)">
<path d="M31.3333 33H28L43 18L58 33H54.6667" stroke="white" stroke-width="2" stroke-linecap="round" stroke-linejoin="round"/>
<path d="M31.3333 33V44.6667C31.3333 45.5507 31.6844 46.3986 32.3096 47.0237C32.9347 47.6488 33.7825 48 34.6666 48H51.3333C52.2173 48 53.0652 47.6488 53.6903 47.0237C54.3154 46.3986 54.6666 45.5507 54.6666 44.6667V33" stroke="white" stroke-width="2" stroke-linecap="round" stroke-linejoin="round"/>
<path d="M38 48V38C38 37.116 38.3512 36.2681 38.9763 35.643C39.6014 35.0179 40.4493 34.6667 41.3333 34.6667H44.6667C45.5507 34.6667 46.3986 35.0179 47.0237 35.643C47.6488 36.2681 48 37.116 48 38V48" stroke="white" stroke-width="2" stroke-linecap="round" stroke-linejoin="round"/>
</g>
</g>
<defs>
<filter id="filter0_d_105_4781" x="0" y="0" width="86" height="86" filterUnits="userSpaceOnUse" color-interpolation-filters="sRGB">
<feFlood flood-opacity="0" result="BackgroundImageFix"/>
<feColorMatrix in="SourceAlpha" type="matrix" values="0 0 0 0 0 0 0 0 0 0 0 0 0 0 0 0 0 0 127 0" result="hardAlpha"/>
<feOffset dy="10"/>
<feGaussianBlur stdDeviation="7.5"/>
<feComposite in2="hardAlpha" operator="out"/>
<feColorMatrix type="matrix" values="0 0 0 0 0 0 0 0 0 0 0 0 0 0 0 0 0 0 0.2 0"/>
<feBlend mode="normal" in2="BackgroundImageFix" result="effect1_dropShadow_105_4781"/>
<feBlend mode="normal" in="SourceGraphic" in2="effect1_dropShadow_105_4781" result="shape"/>
</filter>
<clipPath id="clip0_105_4781">
<rect width="40" height="40" fill="white" transform="translate(23 13)"/>
</clipPath>
</defs>
</svg>
